<?xml version="1.0" encoding="UTF-8"?>
<svg id="Layer_1" data-name="Layer 1" xmlns="http://www.w3.org/2000/svg" viewBox="0 0 1835.19 2215.68">
  <defs>
    <style>
      .cls-1 {
        fill: #9833fe;
      }

      .cls-1, .cls-2, .cls-3, .cls-4, .cls-5, .cls-6 {
        stroke-width: 0px;
      }

      .cls-2 {
        fill: #0e0e0e;
      }

      .cls-3 {
        fill: none;
      }

      .cls-4 {
        fill: #fdfdfd;
      }

      .cls-5 {
        fill: #fecb33;
      }

      .cls-6 {
        fill: #242424;
      }
    </style>
  </defs>
  <g>
    <path class="cls-2" d="m1835.19,693.17v2.06c-12.21,6.16-25.32,3.27-37.78,2.37-10.53-.76-21.15-3.41-31.68-5.48-23.58-4.64-45.66-13.94-68.38-21.25-9.38-3.02-17.16-8.94-25.46-13.94-6.74-4.05-13.55-8.42-21.54-6.9-3.52,2.8-4.1,6.31-2.46,8.87,5.93,9.25,7.46,20.82,15.62,28.85,1.98,1.95,3.95,4.01,4.95,6.59,12.18,31.18,32.51,58.35,44.86,89.42,5.37,13.5,14.22,25.36,19.4,38.67,9.82,25.26,22.57,49.43,29.34,75.84,4.26,16.61,13.06,31.79,15.26,49.13,2.37,18.67,7.32,36.98,6.81,56.04-.4,15.12-.18,30.26-.06,45.38.27,32.83-4,65.32-13.66,96.44-11.28,36.34-26.01,71.61-45.31,104.77-6.73,11.55-8.7,24.61-9.67,37.53-2.06,27.45,2.54,53.36,20.13,75.97,3.47,4.46,6.77,9.54,8.25,15.87-3.56,4.33-8.56,4.12-13.18,3.2-12.39-2.48-23.83-7.04-33.56-15.52-14.89-12.98-28.83-26.76-40.15-42.99-2.89-4.14-3.2-4.03-9.96-6.53-3.29.86-4.49,3.51-4.32,6.3.73,12.25-3.69,23.34-6.59,34.94-8.6,34.34-23.4,66-40.01,96.98-7.64,14.25-15.38,28.45-23.49,42.48-14.29,24.72-29.76,48.62-46.67,71.63-14.47,19.69-28.5,39.91-40.37,60.99-10.69,19-21.83,37.96-31.11,57.98-10.96,23.65-18.51,47.99-25.61,72.73-1.86,6.49-3.58,7.96-11.08,11.81-10.34-4.57-14.19-14.55-17.56-24.05-4.93-13.91-6.32-28.88-10.49-42.95-4.96-16.76-6.39-33.51-6.1-50.69.05-2.7-.31-2.71-4.08-7.92-5.45-.51-6.95,3.9-8.62,7.44-13.95,29.57-31.34,57.32-48.39,85.08-11.18,18.21-20.09,37.54-31.46,55.66-15.42,24.56-22.65,52.88-31.64,80.31-5.21,15.91-9.97,31.87-13.17,48.66-11.53.36-14.29-7.78-16.31-15-4.7-16.84-12.9-32.52-16.44-49.72-.6-2.93-.88-6.24-4.15-7.96-4.33-1.29-6.35,1.8-8.38,4.53-16,21.59-28.94,45.09-43.28,67.69-12.45,19.62-21.28,40.77-32.28,60.94-9.35,17.14-19.48,34.03-25.86,52.67-1.53,4.47-3.06,9.22-8.11,11.28-5.42-.16-6.8-4.32-8.43-8.06-3.85-8.84-7.94-17.56-11.37-26.59-3.88-10.2-10.73-10.84-17.65-2.44-23.43,28.47-44.79,58.49-64.57,89.43-16.81,26.3-34.1,52.36-49.23,79.79-6.43,11.65-12.01,24.66-22.37,34.13h-6.25c-9.14-13.33-15.87-28.04-24.61-41.67-13.16-20.52-24.24-42.35-38.26-62.37-9.67-13.81-17.37-28.81-27.43-42.39-13.07-17.64-26.73-34.83-39.98-52.33-3.18-4.2-6.9-8.84-15.17-9.07-8.44,11.86-10.47,28.96-23.47,38.9-6.35-.41-7.93-5.41-9.99-9.57-7.92-16.01-15.77-32.14-23.91-47.93-10.52-20.41-21.17-40.89-32.4-61.02-13.94-25-29.68-48.79-45.59-72.53-1.16-1.73-2.25-3.5-5.49-3.89-7.08,2.82-7.14,10.11-9.22,16.5-5.29,16.24-10.4,32.56-17.57,48.13-1.57,3.42-3.86,6.53-8.62,7.32-5.88-4.69-5.92-11.97-8.02-18.24-14.06-41.88-25.46-84.6-48.19-123.39-11.95-20.39-23.7-41.08-36-61.2-9.45-15.46-15.43-33.1-28.11-46.7-3.55-3.8-4.58-9.21-6.83-13.85-2.07-4.27-3.7-9.08-9.24-9.86-1.37.31-2.48.87-2.68,1.83-2.75,12.9-5.98,26.29-6.97,38.85-1.75,22.03-8.3,42.2-14.79,62.69-2.5,7.9-8.63,14.04-12.27,21.48-1.61,3.29-5.01,4.54-8.18,3.93-2.8-1.32-3.69-3.25-3.93-5.31-5.72-47.46-27.2-88.9-50.48-129.65-18.28-32-40.72-61.32-60.72-92.21-26.16-40.4-53.69-80.08-72.28-124.76-9.21-22.13-19.05-43.91-24.79-67.49-2.7-11.1-5.15-21.79-5.24-33.13-.03-3.73-.39-7.64-4.43-10.02-5.36-.23-7.5,4.21-10.26,7.5-10.41,12.43-20.71,24.82-32.59,36.06-10.17,9.63-22.02,15.4-34.5,20.58-6.21,2.58-12.69,3.54-19.21-.47-1.5-7.04,1.75-12.78,5.62-18,12.7-17.11,18.72-36.81,21.96-57.25,3.11-19.65-2.34-38.78-10.9-55.91-15.53-31.11-31.3-62.08-42.91-94.82-5.02-14.16-6.8-29.4-10.32-44.07-4.31-17.97-3.98-36.07-4.21-54.25-.1-7.92-5.05-15.17-3.95-23.26,4.29-31.46,2.24-63.69,11.56-94.55,11.31-37.44,23.97-74.33,40.44-109.99,13.85-30,27.24-60.28,43.2-89.15,13.46-24.34,25.91-49.28,40.73-72.9,3.76-6,7.8-12.24,7.61-19.49-3.61-4.36-7.1-3.29-10.47-.87-26.12,18.76-55.07,30.6-86.29,39.03-26.23,7.09-52.07,13.82-79.39,13.26-4.41-.09-9.15.78-12.78-2.9,0-4.72,3.04-7.59,6.64-9.79,23.85-14.58,44.63-33.18,62.74-53.79,19.2-21.86,37.94-44.26,52.57-70.05,11.29-19.89,18.45-41.29,28.7-61.45,6.28-12.36,6.11-26.7,8.78-40.14,4.26-21.48,5.2-43.62,13.85-64.21,2-4.76,1.66-10.15,2.49-15.23,4.54-27.78,16.69-53.19,32.47-75.31,13.95-19.55,28.5-39.53,50.16-53.84,14.9-9.84,27.95-23.29,43.58-32.83,33.12-20.22,68.08-36.19,105.49-47.45,19.61-5.9,39.07-11.4,59.37-14.32,26.72-3.83,53.33-8.21,80.49-7.41,11.8.35,23.62.13,35.44.02,4.85-.04,9.81.13,13.55-3.41,2.55-3.8,2.21-7.69.07-10.95-6.58-10.03-12.74-20.12-21.8-28.66-12.71-11.99-26.56-21.84-41.79-30.16-3.49-1.91-7.62-3.77-7.75-8.38.54-2.33,2.02-3.84,3.63-3.79,17.17.55,33.77-8.83,51.27-2.72,5.31,1.85,10.99,1.59,16.54,1.42,31.9-.94,63.17,4.3,93.09,14.04,22.17,7.22,45.63,12.22,65.45,25.76,3.05,2.08,6.56,4.03,12.18,2.5,5.1-7.68,7.18-17.45,7.48-27.18.7-22.95,2.06-46.07-6.07-68.31-1.23-3.35-1.6-6.73,1.15-9.68h4.17c28.57,9.87,50.03,29.96,71.03,50.07,27.57,26.41,47.92,58.23,65.21,91.99,1.53,3,2.51,6.49,6.18,7.81,2.98-.39,4-2.77,4.84-4.92,6.04-15.46,15.22-29.12,23.85-43.22,14.22-23.2,33.09-42.12,52.6-60.6,9.92-9.39,19.49-19.02,31.73-26.04,9.25-5.31,18.29-10.88,28.12-15.1h4.17c3.16,4.22,1.34,8.68.28,12.88-6.5,25.8-2.58,51.97-2.82,77.97-.05,5.14,2.61,9.89,7.19,14.43,9.56-1.96,18.24-7.04,27.31-10.77,30.83-12.66,62.42-22.27,95.38-28.14,15.92-2.83,31.66-3.42,47.6-3.5,6.06-.03,11.43-2.86,17.27-3.61,17.54-2.25,34.19,4.75,51.5,5.09,1.23.02,2.43,1.26,3.02,3.27.13,5.26-4.59,6.81-8.56,8.44-23.64,9.66-39.13,28.91-55.84,46.58-5.37,5.67-9.34,12.81-8.88,21.19,4.28,7.04,10.68,5.73,16.82,4.65,26.17-4.58,52.31-5.17,78.44.25,3.43.71,6.89.85,10.37.79,30.12-.54,59.56,4.91,88.04,13.34,38.24,11.31,75.45,25.88,108.53,48.68,23.06,15.9,46.36,32.26,64.26,53.63,27.38,32.69,48.27,69,57.23,111.73,4.7,22.41,10.42,44.71,13.53,67.37,2.15,15.66,4.44,31.22,8.53,46.46,5.08,18.93,13.23,36.79,22.09,54.17,6.54,12.82,12.72,26.26,21.71,37.43,8.76,10.87,14.98,24,26.97,32.25,2.29,1.58,4.68,3.38,5.72,5.9,6.15,14.98,19.12,24.61,30.58,34.43,11.38,9.74,22.71,19.98,35.39,28.32,4.34,2.86,8.62,5.8,11.85,9.96Z"/>
    <path class="cls-1" d="m716.36,1077.51c-6.69,3.94-13.51,7.68-20.04,11.87-18.47,11.85-37.28,23.01-58.57,30.71-5.05-3.04-5.41-8.66-6.26-13.82-2.97-17.93-8.37-35.49-7.75-53.97.37-10.99,4.68-20.51,11.39-28.57,7.62-9.15,16.51-17.2,27.95-22.02,4.29-1.8,8.03-4.87,12.38-7.58-14.88-5.97-29.68-10.8-43.43-17.69-20.57-10.31-40.96-21.3-58.19-36.83-14.42-13-29.71-25.4-42.11-40.14-18.87-22.42-35.72-46.65-44.66-74.97-3-9.52-3.47-19.82-5-29.78-.77-4.99-1.64-10-1.89-15.02-.2-4.03.42-8.1.81-12.14.19-2,.98-3.97,1.01-5.96.4-26.41,9.44-49.86,24.73-71.2,6.47-9.03,12.85-18.13,19.66-27.75,6.03,4.73,12.03,9.43,16.36,12.83,23.95-3.95,46.32-7.68,68.7-11.31,4.7-.76,9.45-1.22,14.17-1.82,1.96,6.12-5.46,8.37-5.71,15.4.89,6.81,10.57,9.73,13.15,18.97-.89,8.8-6.22,17.22-9.95,24.94-8.59,5.8-17.89.79-26.27,5.95-1.81,10.26-.9,20.97.21,32.37,11.25,4.88,25.71-.59,32.81,16.3,6.89,16.4-4.76,22.99-10.75,33.26,5.32,10.75,14.84,16.54,21.96,23.81,10.21-1.53,13.12-11.84,23.08-13.78,7.37,2.23,16.52,4.14,23.4,9.86,7.7,6.4.84,17.49,6.86,26.08,10.27,1.89,21.11,1.33,31.41.18,7.15-8.47-1.16-20.89,8.85-27.11,7.01-4.35,14.72-7.52,22.3-9.02,9.05,1.9,12.15,11.17,21.14,13.69,9.7-5.23,16.52-14.03,24.33-22.82-6.13-11.15-19.02-17.53-11.25-34.49,7.43-16.21,20.64-11.67,30.88-14.85,6.65-11.11-.61-23.13,5.72-32.95,7.92-11.51,7.08-23.3,1.09-35.21-9.91-19.69-24.64-34.78-44.29-45.12-21.5-11.32-44.16-19.83-68.09-24-25.31-4.4-50.83-7.68-76.73-5.04-11.97,1.22-24.12.88-36.06,2.32-14.89,1.8-29.64,4.71-44.44,7.15-3.94.65-7.88,1.35-11.81,2.02,6.23-13.24,12.56-26.36,18.58-39.61,5.53-12.16,10.9-24.4,16.04-36.73,11.95-28.64,22.88-57.72,35.83-85.9,9.25-20.11,24.91-35.18,44.87-45.91,12-6.45,24.43-11.98,37.49-15.04,15.16-3.55,30.9-4.72,46.4-6.83,6.08-.83,12.23-2.13,18.3-1.96,25.29.72,50.63,2.37,75.19,8.44,19.92,4.93,39.24,12.28,57.09,22.59,6.14,3.55,11.33,8.71,17.68,13.7,7.39-4.66,15.37-9.46,23.12-14.61,17.18-11.41,36.48-17.78,56.39-21.75,19.3-3.85,38.93-6.76,58.56-8.14,13.58-.95,27.44.94,41.08,2.4,11.1,1.19,22.14,3.29,33.08,5.6,7.19,1.52,14.16,4.08,21.19,6.29,4.14,1.3,8.35,2.55,12.29,4.33,30.35,13.67,49.9,36.88,61.51,67.46,7.84,20.66,16.53,41.01,24.93,61.45,6.88,16.74,13.55,33.58,20.97,50.08,5.45,12.12,11.97,23.78,17.96,35.66.39.77.3,1.78.42,2.65-16.5-3.35-32.64-6.97-48.92-9.81-13.66-2.38-27.44-4.43-41.25-5.6-20.97-1.78-42.07-1.68-63.02.1-39.19,3.32-76.55,12.97-110.04,34.41-20.98,13.43-34.96,31.82-40.99,55.88,1.61,5.77,3.15,11.25,4.69,16.73,3.67,6.29,3.01,13.26,3.24,20.1.16,4.72-.96,9.69,3.24,14.9,10.35,2.78,23.45-1.05,30.55,15.23,7.16,16.4-5.29,22.92-10.76,33.56,6,10.09,14.43,16.88,22.73,23.34,9.33-1.83,12.31-11.26,21.72-13.76,7.54,1.7,16.43,4.2,23.53,9.54,8.21,6.18,1.56,17.31,6.91,26.19,10.21,2.47,21.08,1.22,32.65.56,5.2-10.94-.67-25.46,16.5-32.44,16.32-6.64,23.64,2.25,33.49,10.51,10.96-5.54,17.86-14.31,25.49-23.37-4.75-11.13-19.07-17.06-11.15-34.23,7.47-16.2,20.42-12.12,32.02-15.62,3.67-11.45,2.41-22.46,1.2-33.13-8.38-5.04-17.58-.27-25.9-5.27-5.04-7.33-7.99-16.41-10.79-24.93,1.86-9.13,10.76-12.38,13.84-19.3.92-6.73-8.49-8.85-6.32-15.7,17.24,2.3,34.56,4.18,51.71,7.06,11.32,1.9,22.38,5.24,33.8,8,5.04-10.19,17.7-13.75,26.11-24.07,13.42,21.35,27.49,41.39,38.96,62.79,7.88,14.71,11.44,31.48,11.76,48.5.1,5.15-.12,10.32.04,15.47.69,23.1-5.92,44.58-15.44,65.21-10.39,22.5-25.12,41.99-41.72,60.62-26.88,30.17-59.02,52.82-94.94,70.62-13.43,6.65-27.71,11.64-42.6,17.79,6.35,3.72,11.95,7.19,17.73,10.36,13.81,7.58,24.85,18.03,30.66,32.57,3.27,8.18,5.87,16.68,3.17,26.41-3.13,11.28-3.79,23.24-5.51,34.9-1.93,7.28-3.86,14.55-6.02,22.68-30.76-12.32-57.56-28.89-84.37-47.39,2.05,10.35,24.77,31.78,78.4,65.59.03,14.53-4.83,27.91-12.77,41.11-18.18-10.29-35.35-20-52.52-29.71-.43.62-.86,1.23-1.29,1.85,14.03,17.22,34.22,27.71,51.36,42.22-7.15,14.86-13.13,28.59-20.26,41.71-5.87,10.8-8.25,11.45-20.74,11.38-19.65-12.91-38.9-26.65-59.23-38.58-18.49-10.85-38.23-19.59-59.1-25.34-17.55-4.83-35.23-9.18-52.65-14.42-12.59-3.79-24.96-8.47-35.59-16.54-2.14-1.62-4.11-3.46-6.04-5.09,0-12.18-1.23-24.03.37-35.49,1.41-10.08,4.83-20.34,9.64-29.33,2.41-4.51,9.94-6.28,15.04-9.46,9.7-6.04,20.28-11.14,28.76-18.57,14.37-12.59,27.72-26.39,40.85-40.29,6.34-6.71,11.35-14.7,16.63-22.33,2.37-3.42,3.92-7.4,6.93-13.24-21.07,8.92-39.66,17.23-58.62,24.63-9.7,3.78-19.86,7.21-30.68,2.96-2.11-.83-4.82-.21-7.25-.21-11.12-.01-22.24-.27-33.35.07-10.63.33-21.24,1.33-31.86,1.96-12.96.76-24.78-3.53-36.4-8.39-13.96-5.83-27.79-11.97-41.78-17.73-2.03-.84-4.62-.34-8.52-.54,5.39,8.34,9.43,16.04,14.84,22.64,9.72,11.86,19.52,23.83,30.64,34.35,15.25,14.43,30.85,29.07,51.19,36.39,10.81,3.89,16.12,12.33,18.22,21.53,2.54,11.12,7.79,22.38,3.34,34.6-1.28,3.53,1.95,7.47.09,12.43-3.9,10.37-12.82,13.25-21.13,17.45-19.84,10.02-41.52,13.85-62.92,18.93-13.27,3.16-25.97,8.88-38.72,13.96-20.14,8.03-38.96,18.57-56.67,30.98-7.76,5.44-15.08,11.52-22.88,16.91-5.94,4.1-12.33,7.5-20.55,5.28-16.55-12.67-20.08-33.41-30.53-51.55,17.11-16.72,39.71-27.68,56.05-49.04-4,1.85-6.25,2.63-8.23,3.83-13.57,8.29-26.93,16.91-40.71,24.84-3.49,2.01-8.22,1.9-12.96,2.89-3.96-13.44-7.52-25.56-10.93-37.12,17.44-12.29,34.2-23.65,50.43-35.73,9.02-6.71,17.19-14.56,25.58-22.07,1.11-.99,1.3-2.97,1.91-4.5,1.3-2.11-.77-1.26-1.45-1.62Z"/>
    <path class="cls-1" d="m843.08,1336.46c-5.45,13.76-10.9,27.52-16.7,42.16-4.09-.87-8.68-1.04-12.54-2.78-29.2-13.15-57.56-27.75-79.09-52.17-9.18-10.41-17.27-21.59-17.2-36.57.04-7.68,3.11-13.76,8.18-19.03,14.71-15.3,31.95-27.64,50.19-38.18,18.04-10.43,37.17-19.13,57.28-25.23,23.81-7.23,47.73-13.58,73.12-12.43,7.94.36,16-.07,24.03.05,36.38.52,69.98,10.78,102.6,26.02,20.69,9.67,39.78,21.72,57.74,35.35,11.09,8.41,23.45,17.02,25.54,33.2-2.6,7.13-4.8,14.44-7.89,21.36-6.41,14.4-18.69,24.28-30.49,33.58-13.42,10.58-28.68,19.15-43.94,27.07-8.97,4.66-18.41,10.25-29.19,9.07-5.51-13.72-6.29-29.02-18.85-40.09-1.32,7.12-2.72,12.62-3.31,18.21-1.96,18.5-13.46,28.52-30.11,34.48-8.49,3.04-17.03,4.69-26.08,4.12-14.99-.94-30.45,2.66-44.8-4.19-6.6-3.15-13.36-6.35-19.15-10.69-11.48-8.61-14.61-21.35-15.49-34.84-.17-2.57-.4-5.14-.6-7.7-1.08-.25-2.16-.5-3.24-.74Z"/>
    <path class="cls-1" d="m1367.08,658c-11.77-8.09-16.35-21.15-24.4-32.55,3.88-6.21,7.66-12.53,11.7-18.67,13.03-19.77,19.63-41.51,17.76-64.96-2.48-31.09-23.25-56.91-55.81-65.67-11.22-3.02-22.21-3.47-33.51-3.85-4.58-.15-9.11-1.63-13.39-2.45-7.1-24.18-17.5-45.61-30.87-65.32-6.41-9.46-15.19-18.14-24.7-24.56-14.07-9.51-29.76-16.67-44.71-24.92-2.58-1.42-4.91-3.27-8.46-5.67,3.24-1.31,4.97-2.37,6.84-2.72,30.76-5.67,61.86-4.2,92.87-4.09,9.92.04,19.89.91,29.76,2.04,21.29,2.43,42.02,7.06,61.44,16.44,24.17,11.68,41.8,29.89,53.96,53.36,11.23,21.69,16.76,44.98,21.41,68.88,4.31,22.13,3.94,44.15,3.39,66.2-.35,14.03-5.69,27.45-11.12,40.5-7.98,19.15-19.95,35.85-33.47,51.4-5.35,6.16-12.28,10.98-18.71,16.6Z"/>
    <path class="cls-1" d="m674.63,350.15c-7.53,4-13.75,7.89-20.43,10.76-17.99,7.72-34.71,17.68-48.13,31.62-8.77,9.1-15.84,20.24-21.8,31.44-7.68,14.41-13.48,29.8-20.94,46.67-2.28.38-6.53,1.68-10.78,1.67-12.04-.04-24.17-.3-35.47,4.29-8.93,3.63-17.92,7.61-25.9,12.9-10.56,7-18.56,16.72-22.97,28.79-1.59,4.37-2.92,8.93-3.57,13.51-2.33,16.55-2.71,32.87,3.04,49.16,5.65,15.99,14.52,29.91,25.15,44.19-8.27,10.78-12.82,24.72-26.21,32.79-20.14-18.68-37.93-38.35-49.72-63.62-11.88-25.46-16.51-51.72-13.67-78.82,2.26-21.52,4.59-43.42,13.15-63.9,2.43-5.82,2.88-12.45,5.39-18.23,7.82-17.99,17.82-34.79,31.57-48.99,18.13-18.73,40.07-31.04,66.02-35.66,18.49-3.29,36.9-7.12,55.92-6.35,13.53.55,27.15.83,40.63-.07,17.38-1.17,34.15,2.65,51.16,4.46,2.09.22,4.04,1.78,7.51,3.4Z"/>
    <path class="cls-5" d="m408.58,1155.13c-1.2-1.17-3.02-2.14-3.5-3.55-4.76-13.93-9.31-27.92-13.84-41.92-.24-.74.33-1.73.54-2.69q7.23,3.74,18.28-1.7c.87-2.41,1.87-5.17,2.88-7.98-1.5-2.98-3.01-5.97-4.62-9.15-2.51-1.27-5.21-2.64-8.38-4.25-3.87,2.42-8.01,5.02-13.23,8.28-2.2-9.09-4.2-17.37-6.38-26.38.91-1.94,2.19-4.66,3.77-8.04-2.3-3.3-4.79-6.85-8.08-11.57v-8.09h25.17c7.55,7.03,12.72,6.37,21.43-2.9v-8.35c-11.1-11.41-11.94-11.47-23.08-1.63-7.78-.57-15.7-1.15-23.62-1.73-.96.5-1.66.26-2.11-.71,2.71-2.35,5.43-4.69,9-7.78,15.9-.03,33.42-2.37,49.17,7.51,3.42-3.55,5.78-6,8.03-8.34v-10.99c-3.24-2.32-7.17-5.13-11.29-8.09-5.08,2.48-10.19,4.97-15.53,7.57h-28.4c-4.16-2.79-7.96-5.34-11.67-7.82-3.32,1.58-6.35,3.02-9.93,4.72-1.25,2.17-2.74,4.77-4.47,7.76,1.66,3.6,3.34,7.24,5.04,10.92,2.73,1.31,5.43,2.62,9.6,4.62-2.63.86-4.12,1.64-5.67,1.78-1.79.16-3.83-.84-5.42-.31-9.48,3.15-17.74,0-26.06-4.06-2.83-1.38-6.2-1.69-9.24-2.47v-53.23c2.71-4.32,4.67-7.44,6.72-10.7-2.08-4.55-4.1-8.95-5.9-12.88h-10.63c-2.96,1.99-5.7,3.83-8.45,5.68l.21.18c1.79-12.22,3.59-24.43,5.4-36.79h56.68c6.9,1.91,11.99,3.32,16.31,4.51,10.51-9.02,10.6-14.35.16-24.19-3.5,1.23-7.69,3.19-12.1,4.12-4.86,1.02-9.92,1.43-14.9,1.5-11.3.16-22.61-.02-33.91-.15-2.36-.03-4.71-.45-7.71-.75,3.35-7.02,6.14-12.84,8.77-18.35h39.02c3.15-2.63,6.77-5.93,10.7-8.81,2.13-1.57,4.78-3.39,7.21-3.43,6.45-.09,9.09-3.95,10.98-9.22q-2.71-11.32-13.07-15.68c-3.02,1.45-6.35,3.04-7.89,3.78-4.04,7.2-7.3,12.99-10.21,18.18h-31.67c4.34-9.56,8.4-18.49,13.03-28.68h74.85c.31,2.06.74,4.88.99,6.5-4.84,1.08-8.79,1.97-12.49,2.79-1.74,3.38-3.11,6.06-4.53,8.83.97,3.37,1.9,6.57,3.21,11.14,4.44.92,9.64,2,15.37,3.19v21.77c-14.55,14.28-29.54,29.08-44.67,43.74-2.15,2.08-5.18,5.22-7.41,4.93-7.22-.96-9.8,3.48-11.51,8.51-1.7,5.01,1.08,9.2,4.67,12.72.72.71,1.54,1.32,3.39,2.88,4.1-1.35,8.76-2.87,12.23-4.02,2.19-4.01,3.69-6.75,5.74-10.5,3.84,10.79,8.18,14.38,15.3,13.79,5.92-.49,9.92-4.61,11.96-13.22,4.1,4.65,7.76,8.8,11.16,12.65,3.69.57,6.85,1.05,10.01,1.54-.03.89-.06,1.79-.09,2.68-5.59.18-11.17.49-16.76.52-18.13.08-36.27.13-54.4,0-2.96-.02-5.99-.75-8.85-1.61-4.76-1.44-9.41-3.25-14.08-4.89-3.01,2.84-5.48,5.18-7.63,7.21v9.94c3.08,6.7,9.33,6.63,16.16,6.89,1.55-1.43,3.74-3.43,4.87-4.47h82.79c6.83,25.63,13.44,50.44,20.21,75.84-10.15,0-20.19.13-30.22-.1-2.25-.05-4.65-1-6.66-2.11-7.21-3.96-12.8-4.13-16.35-.19-4.55,5.07-4.43,11.34.37,17.95.4.55.94.99,1.57,1.65,5.87-.15,12.63,2.44,15.92-4.81h38.99c13.73,21.7,13.16,45.51,10.9,69.19-1.42,5.02-2.85,10.04-3.89,13.74,4.36,9.6,11.36,7.63,18.79,7.52.93-1.6,2.15-3.71,3.37-5.83.41.26.82.52,1.23.78v-10.93c3.76,2.09,6.89,3.84,10.15,5.65,3.6-1.49,7.27-3.01,11.91-4.94v8.58c2.16,2.13,4.35,4.3,6.79,6.71h10.32c1.28-1.76,3.1-4.26,6.36-8.75-.96-3.02-2.63-8.23-4.3-13.44-.67.14-1.35.27-2.02.41.36-30.06.72-60.12,1.08-90.17-.04-.61-.08-1.22-.13-1.82.6.12,1.21.24,1.81.35,1.33,6.78,2.74,13.55,3.98,20.34,2.85,15.54,5.12,31.19,8.62,46.58,1.8,7.92,2.8,15.99,4.57,23.76,2.66,11.66-1.75,18.73-10.29,25-1.02.75-1.94,1.61-2.9,2.44-.23.2-.42.47-.35.39-10.29,0-20.29.07-30.3-.01-19.06-.16-38.13-.4-57.19-.61-1.39-.02-2.85-.28-4.16.04-9.42,2.29-16.57-.84-22.55-10.18,2.46-4.59,5.4-10.05,8.82-16.42-3-4.11-6.12-8.4-9.66-13.27-4.34,1.18-8.15,2.21-11.3,3.07-5.41,7.18-7.01,13.55-.21,19.58v10.64c.49.95.29,1.67-.72,2.13Z"/>
    <path class="cls-5" d="m277.98,516.72v-20.88c-6.33,6.86-11.21,12.13-17,18.4-.42-3.76-.74-6.6-1.19-10.58,1.3-1.41,3.28-3.57,5.13-5.58v-14.32c-5.67-1.8-10.03-7.8-17.59-3.26-7.07,4.24-4.22,10.59-5.19,16.49,1.52,2.14,3.07,4.31,4.33,6.08v13.5c-6.3,6.9-12.82,14.06-19.03,20.87-3.97-3.26-7.92-6.51-12.38-10.17-8.36,4.95-16.23,9.61-24.44,14.48v-7.11c5.58-5.12,10.35-9.51,14.52-13.34-5.24-15.49,2.36-24.89,9.72-33.5,5.34-1.38,9.6-2.47,13.44-3.46,1.68-3.25,3.18-6.17,4.8-9.3-5.76-8.85-7.96-18.5-3.76-28.85,4.48,0,8.2-.8,11.38.16,7.39,2.22,10.64-1.87,13.12-7.37,2.3-5.09-.13-9.31-3.54-12.87-2.75-2.87-12.23-2.77-16.27.07-4.69,3.31-9.14,6.94-13.76,10.48-.86-9.56,10.72-48.16,16.22-54.38,3.86,1.79,7.72,3.57,11.62,5.38,6.8-3.26,13.61-7.15,11.84-15.73-1.23-5.94-6.5-9.39-13.77-10.12,1.41-2.86,2.84-5.75,4.38-8.88h18.44c4.14-4.41,7.81-8.15,11.27-12.06,3.78-4.26,2.07-9.42,2.05-14.29-.02-4.74,0-9.48,0-13.82,4.65-4.48,9.09-8.76,12.55-12.09,4.97,5.49,9.71,11.78,15.57,16.79,3.02,2.58,7.99,3.89,12.14,4.03,14.22.48,28.47.18,42.96.18,5.64-4.07,11.25-8.39,17.18-12.25,1.71-1.11,4.32-.88,6.41-1.24,1.8-1.93,3.79-4.07,6.07-6.52v-9.3c-3.44-2.63-8.18-6.26-10.67-8.17-16.36.45-11.52,15.73-20.17,20.71-25.33,1.98-44.76,1.1-51.37-2.66,1.36-3.22,2.75-6.52,4.28-10.14-.75-2.27-1.59-4.78-2.95-8.88,4.32-2.32,8.47-4.95,12.96-6.79,2.08-.85,4.8-.16,7.24-.16,46.55,0,93.11-.08,139.66.09,6.03.02,12.05,1.31,18.13,2.01v5.02h-21.65c-8.87,11.67-20.93,20.28-34.36,26.87-14.22,6.98-26.92,15.78-37.78,27.22-.95,1-2.06,1.83-3.61,3.2-2.53-1.88-5.15-3.83-7.16-5.32-5.03-.16-9.18.16-13.14,3.1-2.39,1.77-6.42,1.85-9.72,1.87-21.51.15-43.03.08-61.95.08-7.14,6.39-12.82,11.33-18.3,16.48-1.86,1.75-3.8,3.82-4.65,6.12-1.91,5.19-3.17,10.62-4.69,15.95-.77.1-1.53.2-2.3.3,3.1,4.25,6.2,8.5,9.08,12.44h8.7c2.53-2.07,5.4-4.43,8.61-7.05.29-1.82.68-4.23.96-5.94-2.27-5.13-4.32-9.73-6.28-14.17,2.71-2.47,5-3.94,6.43-5.99,3.06-4.39,7.23-5.82,12.31-5.81,19.8.03,39.59.01,60.45.01,1.53,1.98,3.41,4.42,6.08,7.88-5.87,8.28-12.34,17.43-18.82,26.58-2.76,5.75,1.07,13.12-3.83,18.78-4.93-1.34-9.32-3.35-13.76-3.49-3.41-.1-6.88,2.16-10.46,3.42v11.82c1.73,1.81,4.07,4.27,6.91,7.24,3.75-.42,7.73-.87,12.07-1.36-2.82,13.59-5.73,27.66-8.79,42.41-4.23-1.84-7.84-3.4-11.54-5.01-1.12,1.02-2.38,2.17-4.04,3.7v-57.91c2.15-2.66,4.06-5.02,6.67-8.24-2.15-4.48-4.5-9.39-6.6-13.77-7.6-.19-14.57-.38-17,5.75-2.29,5.77-.87,12.35,4.27,16.03v48.38c-1.56.8-4.04,1.29-5.13,2.78-6.05,8.2-15.12,12.86-22.54,19.42-4.61,4.08-7.3,8.6-6.97,15.04.43,8.16.1,16.37.1,24.55-.64-.03-1.27-.05-1.91-.08Z"/>
    <path class="cls-5" d="m1350.82,1394.04c16.52-21.78,43.13-35.18,64.04-54.97,7.38,8.11,14.66,16.1,20.47,22.48h73.86v14.12c-35.9,0-72.42.37-108.92-.29-8.05-.14-13.82,1.53-18.99,7.32-3.9,4.36-8.4,8.2-12.85,12.48v20.14c-2.8,3.51-5.25,6.58-8.19,10.26-2.81-3.58-5.59-7.12-7.88-10.03h-11.52c-1.83,1.65-3.92,2.89-5.08,4.71-2.56,4.03-5.06,8.13-.64,12.87,1.6,1.72,3.01,4.81,2.63,6.95-1.93,10.79,5.53,16.36,12.03,22.5,1.71,1.61,3.79,2.82,5.55,4.1h40.5c.53-.89.89-2.43,1.83-2.96,12.03-6.78,11.29-18.24,11.18-29.45-.04-3.89-.34-7.78-.55-12.38,1.69-1.77,3.73-3.92,5.45-5.73-.15-11.06-.19-11.14-11.31-19.05-4.41,3.74-9,7.63-13.07,11.07,9.67,31.04,9.16,36.43-4.11,46.29-4.72,0-9.95-.37-15.11.07-13.04,1.11-18.36-4.49-16.57-16.99,2.01-2.93,4.28-6.24,6.95-10.14,1.87,3.31,3.43,6.07,4.91,8.68,12.72,6.49,18.07,3.74,21.36-11.48-8.15-5.38-4.96-14.35-6.26-23,3.63-3.43,7.61-7.19,11.74-11.08h37.47c-3.91,3.31-7.69,6.51-11.26,9.53v10.25c4.8,6.04,9.73,12.41,14.86,18.63,4.19,5.09,9.59,7.17,16.39,6.87,9.71-.43,19.46.18,29.17-.21,6.51-.26,12.99-1.47,19.75-2.29-2.07,6.15-4.46,13.24-6.96,20.7h-63.75c-20.88,16.22-31.81,38.59-46.1,58.65-3.26-1.47-6-2.71-8.26-3.73-2.64.78-4.91,1.44-7.18,2.12-7.21,10.77-7.04,12.91,2.43,21.7-10.36,8.69-20.67,17.35-30.75,25.81v8.84c-11.66,12.08-23.57,24.42-36.24,37.55h-13.6c-9.88,10.35-18.64,19.55-25.5,26.73h-34.26c.35-3.41.66-6.4,1.16-11.24,4.2,3,6.7,4.79,10.76,7.7,3.86-.98,9.28-2.35,16.1-4.08-1.46-6.99-2.64-12.67-3.76-18.04-8.35-1.55-14.79-1.81-19.44,4.68-6.22-5.19-.23-10.15-.29-15.37,5.11.29,10.2,1.29,15.1.68,5.07-.63,9.09-.09,13.37,2.92,2.48,1.74,6.32,1.6,9.6,2.31,2.46-2.92,4.45-5.28,7.03-8.35v-10.57c-3.5-1.86-7.56-4.02-11.96-6.35-3.49,2.1-6.94,4.17-10.39,6.25h-19.59q-2.77-12.23,10.4-32.03c-9.09-13.54,2.45-25,3.03-37.8h9.57v25.38c-1.63,5.34-3.06,10.05-4.37,14.33,2.29,3.37,3.98,5.85,5.84,8.58h11.82c1.29-1.52,3.28-3.84,5.97-7.01-.19-2.7.96-7.63-1-9.88-5.06-5.77-4.28-11.68-3.69-18.28.48-5.37-.53-10.88-.83-15.56-2.12-5.11-4.07-9.78-6.01-14.45,1.12.39,2.23.77,3.35,1.16,6.98-7.35,13.96-14.71,20.5-21.59v-34.11c6.09-5.09,12.51-10.46,19.92-16.65v11.39c-3.93,3.82-10.57,7.75-10.73,15.57-.25,11.7-.09,23.4-.05,35.1.07,21.15-.34,42.32.54,63.44.35,8.33-1.65,14.98-6.39,20.02,1.15,11.17,8,13.94,18.13,13.37,1.26-1.4,3.31-3.67,5.68-6.31v-10.03c-1.8-1.94-3.65-3.94-4.83-5.21v-108.43c-1-.8-2-1.61-3-2.41,3.69-3.35,7.37-6.7,11.06-10.05.73.55,1.47,1.09,2.2,1.64v-17.02c3.07-7.78,4.58-13.58,7.52-18.55,3.8-6.43,10.12-9.92,20.06-12.82Z"/>
    <path class="cls-5" d="m1343.05,1130.62c3.89-7.16,7.78-14.32,12.04-22.17v50.46c-8.06,9.25-20.15,16.69-22.35,32.31,2.99,2.13,6.63,4.72,10.27,7.31,6.48,3.34,11.31-1.01,15.4-8.15v-5.98c-.84-.99-2.56-3-5.08-5.95,5.24-4.15,10.57-8.37,13.92-11.02,0-19.13-.07-35.2.04-51.27.04-5.93-.04-11.95,1.02-17.73.52-2.82,3.09-5.69,5.48-7.67,8.15-6.75,14.04-14.09,12.69-25.68-.47-4.06,1.95-8.45,4.2-12.44v-12.05c-3.51-2.65-6.74-5.08-10.29-7.77,1.8-4.71,3.44-9.02,5.21-13.66,2.3,2.01,4.36,3.8,6.66,5.81h10.8c1.78-1.96,3.84-4.24,6.29-6.93-1.43-4.94-2.97-10.25-4.51-15.55-.49-10.26-.45-20.62-9.13-27.11,2.22-11.45,4.2-21.64,6.13-31.57,4.6,2.05,9.1,4.07,14.49,6.48,4.03-5.14,7.48-9.54,10.6-13.51-2.59-6.01-4.7-10.89-6.55-15.18,4.19-4.48,7.7-8.24,11.13-11.91,21.68,0,42.86-.15,64.05.15,3.47.05,6.91,2.1,12.41,3.89,1.8.09,5.84.28,9.89.47.35.66.7,1.32,1.04,1.99-8.37,6.28-11.8,17.82-24.9,19.22-6.94.74-10.72,9.41-7.68,15.88,1.27,2.7,3.33,5.03,4.7,7.04,11.94,3.97,15.57-5.42,21.51-12.95.55,9.78,7.65,12.45,13.24,18.06-9.49,0-18.98.12-28.47-.04-8.09-.14-16.53,1.71-23.46-5.04-1.41-1.37-5.34-.2-9.74-.2-1.12,1.47-3.19,4.18-5.97,7.82v8.06c2.8,6.47,8.89,6.74,16.08,6.91,1.46-1.36,3.61-3.35,5.52-5.12h48.18v26.53h-18.43c-3.2-2.22-7.08-4.92-10.74-7.46-3.34,1.63-6.39,3.13-9.88,4.83-1.28,2.32-2.72,4.95-4.29,7.8,2.15,4.37,4.21,8.56,6.13,12.45,6.74.59,13.2,2.3,16.26-4.86h21.02v10.02c-10.85,0-21.05,0-31.25,0-1.53,0-3.07-.21-4.59-.07-13.83,1.25-18.2.43-30.38-5.11-2.66-1.21-5.72-1.54-8.82-2.32v-52.9c6.39-9.02,8.92-14.54-.62-23.63h-9.92c-1.98,1.82-4.48,4.11-7.35,6.74.26,3.4.52,6.92.8,10.62,6.45,1.54,4.93,7.3,5.03,11.81.29,13.36.1,26.73.1,39.21-12.25,10.73-23.78,20.85-35.09,30.76v31.89c-6.82,6.81-14.03,14.32-21.59,21.48-4.91,4.66-6.77,9.78-6.45,16.64.61,13.28.18,26.62.18,41.04,6.64,6.4,14.31,13.8,22.38,21.58h18.08c-5.81,13.47-11.14,25.83-16.82,38.99-3.38-3.01-5.61-4.98-7.8-6.93h-69.69c-11.71-8.31-13.48-8.27-23.71.3q.22,11.2,5.74,16.82c6.35,1.01,12.81,1.54,16.91-4.75,21.83,0,43.01-.07,64.19.12,1.81.02,3.61,1.69,6.96,3.36-1.85,5.07-3.71,10.17-5.16,14.14-6.49-1.22-11.63-2.98-16.8-3.02-36.14-.24-72.28-.13-108.42-.13-3.35,0-6.7,0-11,0,2.05-5.61,3.64-9.98,5.48-15.02,4.68,2.15,8.9,4.09,13.9,6.4,2.62-1.25,5.93-2.84,8.87-4.25,1.68-3.22,3.21-6.16,4.71-9.04-1.3-2.29-2.77-4.88-4.88-8.59-1.51-.91-4.27-2.57-7.03-4.23.12-.52.23-1.04.35-1.56,2.48.18,4.96.53,7.44.52q14.97-.07,26.52-11.53c9.57-9.49,19.1-19.02,28.13-28.01,4.58-1.36,8.44-2.51,11.89-3.54,1.82-3.53,3.36-6.51,5.52-10.71-3.29-3.65-6.94-7.7-10.59-11.75l-.18.19Z"/>
    <path class="cls-5" d="m790.7,1652.37c-3.78-3.58-7.56-7.16-12.1-11.47,3.76-10.02,7.2-21.13,12.04-31.61,4.92-10.65,7.29-20.68-.05-30.61q-.21-13.75,2.98-18.71c3.54,0,7.38-.94,10.44.18,7.91,2.88,10.54-2.36,12.9-7.55,2.27-5.01-.56-9.24-3.97-12.73-2.44-2.49-12.15-2.54-15.45-.03-6.25,4.75-12.22,9.86-19.57,15.83-1.88-4.92-3.7-9.66-5.92-15.45-2-.43-4.96-.86-7.81-1.7-13.58-3.99-14.73-6.17-14.49-19.98.32-18.74-.06-37.5-.02-56.25,0-2.75.68-5.49.42-8.33,1.06-7.02,11.4-8.87,10.27-17.61,13.32,1.14,15.07,2.74,14.16,13.97,5.61,5.38,11.54,11.08,17.22,16.52,9.38,0,18.01-.09,26.64.04,4.04.06,7.69-.14,9.36,5.56,1.3,4.41,5.67,7.92,8.53,11.92.96,1.35,2.41,3.23,2.09,4.47-2.94,11.44,4.78,15.21,14,18.91,4.86,7.9,10.08,16.39,15.29,24.88-.93,1.87-2.33,3.29-4.19,4.26l.04-.04c-1.77,2.09-4.08,3.59-6.12,5.37-3.25,2.83-5.66,6.19-3.73,10.65,2.13,4.91,6.45,5.49,11.21,4.75,2.33-.36,4.66-1.26,7.68.26-1.19,5.16,2.73,10.68-.84,16.13-8.48,6.84-17.06,13.57-25.37,20.6-1.69,1.43-2.37,4.01-3.65,6.29v29.81c-9.67,9.31-19.34,18.63-27.41,26.4v49.13c8.55,8.66,14.73,14.91,22.33,22.6h34.39c.75,3.41,1.4,6.33,2.18,9.87-2.01.75-3.86,1.44-6.1,2.28.47,1.31,1.11,3.11,1.94,5.43-3.84,3.57-7.78,7.25-12.64,11.77,1.13,2.94,2.65,6.87,4.42,11.48h-21.04c-2.42-2.79-5.34-6.17-7.9-9.13-15.53,0-30.12.04-44.71-.02-4.9-.02-9.99-1.23-14.65-.27-8.15,1.68-15.2.86-21.9-6.1-1.58-3.93-3.67-9.13-5.83-14.5,6.42-6.51,13.14-13.72,20.32-20.43,3.45-3.22,6.43-6.98,12.32-7.43,6.53-.5,9.28-6.67,12.29-11.76.46.17.92.34,1.39.5,6.16,7.44,2.89,14.02-2.04,20.33-4.02,5.14-9.79,8.77-12.97,14.64-2.52,4.65-4.93,9.38-.4,14.16,2.93,3.1,6.49,3.94,10.32,1.7,5.66-3.32,5.27-8.26,3.46-13.52-.34-.98-.34-2.02-.12-3.04.14-.67.19-1.51.66-1.92,13.01-11.07,11.81-25.98,11.27-40.69-.35-9.59.99-19.14.29-28.75-.61-8.41,2.82-15.44,9.52-20.67,5.9-4.61,8.7-10.38,8.2-17.86-.28-4.15.68-8.15,2.7-11.89,1.49-2.76,2.27-5.76,1.85-8.93-.65-4.86-3.75-7.24-8.46-7.41-4.6-.17-6.83,2.71-7.67,6.86-.34,1.69-.62,3.57.09,5.08,9.52,20.19-2.76,32.14-16.64,43.52-.49.08-.98.16-1.47.23Z"/>
    <path class="cls-5" d="m948.49,1595.93c8.68-1.06,15.75-.23,22.3,4.13,1.98,1.32,5.34.62,8.74.9,1.8-2.36,3.67-4.82,5.88-7.72v-9.33c-2.94-2.19-6.91-5.15-10.91-8.12-4.08,2.47-7.53,4.55-10.22,6.18h-15.69c-.28-2.78-.51-5.14-.78-7.8h32.63c9.09,5.83,17.2,5.36,20.98-1.35,4.63-8.22,1.7-13.35-12.18-19.72-11.84,9.92-26.15,8.2-41.28,6.02v-25.08h79.62c.86,7.88,1.7,15.51,2.62,23.92-4.31-1.38-7.77-2.48-11.56-3.7-3.19,1.61-6.8,3.44-10.59,5.36-.4,6.21-2.39,12.44,4.32,16.51,5.94,3.6,11.6,2.89,18.37-2.79.76,12.9,1.45,24.65,2.15,36.47-14.88,0-29.18.04-43.48-.05-2.14-.01-4.38-.4-6.41-1.09-4.3-1.46-8.48-3.23-13.45-5.16-2.47,3.51-4.26,6.04-6.87,9.75v7.41c2,2.38,3.99,4.73,5.71,6.78h10.75c1.85-1.67,4.07-3.68,4.95-4.48,11.35,0,21.26.95,30.88-.28,8.67-1.11,14.54,1.41,19.49,8.56v58.42c-5.18,7.98-5.51,16.02-.69,20.18,4.86,4.2,10.98,2.76,19.12-4.71.21-2.71.44-5.71.69-9.08,3.82,1.74,7.22,3.28,11.34,5.15,2.52-1.43,5.56-3.17,9.53-5.42.45,3.3.83,6.09,1.37,10.13,1.52,1.16,4.14,3.17,7.83,6,10.98.16,12.51-1.08,14.61-10.88-2.3-8.37-4.94-13.96-5.19-19.65-.65-14.81-.25-29.66-.26-44.49,0-8.93-.52-17.9.16-26.78.52-6.73-2.52-11.13-6.41-15.98-2.95-3.67-4.39-8.53-6.5-12.87-1.19,1.19-2.38,2.38-3.57,3.57-.54-8.9-1.07-17.8-1.65-26.69-.07-1.13-.04-2.54-.68-3.28-.83-.95-2.3-1.36-1.66-1.02-2.1-5.79-3.68-10.14-5.62-15.47,8.68-1.26,9.91,9.92,17.68,11.57.44,7.32,1.93,14.98,1.03,22.36-.78,6.41,2.14,9.91,5.96,13.66,7.15,7.01,14.31,14.03,21.05,20.63v96.48c-5.67,5.18-9.94,9.07-13.97,12.74h-102.79c-2.02-1.31-5.12-3.34-7.74-5.04-7.22-9.05,2.99-13.63,4.17-21.58-1.42-4.95-2.83-11.37-11.11-12.96-13.96,4.17-17.7,12.16-8.78,21.6-3.99,14.18,6.26,22.07,15.47,30.5,15.28,1.49,30.84-1.32,47.12,1.81-3.73,6.55-9.11,8.47-14.23,8.61-17.95.5-35.93.19-53.5.19-15.79-12.47-9.77-26.32-2.75-39.4-4.2-7.3-7.97-13.08-16.23-12.02v-25.19c8.82,2.53,16.83,8.41,24.9-.16.59-1.72,1.46-4.23,2.55-7.38-1.02-6.5-5.97-10.17-13.09-12.81-4.31,2.22-8.99,4.62-14.13,7.27v-53.32Z"/>
    <path class="cls-5" d="m1511.6,572.94c-3.19-8.73-5.95-16.27-9.13-24.98,5.1.88,10.36.89,14.81,2.76,6.7,2.81,12.49,2.63,18.42-1.65,1-2.77,2.01-5.57,3.63-10.07-3.83-3.62-8.26-7.79-11.21-10.58-10-.12-15.36,14.71-24.41,2.65v-18.33c1.4-1.49,3.25-3.46,4.96-5.28,1.49-6.82-.19-12.29-6.68-16.23h-9.74c-1.25-2.82-2.54-5.72-4.01-9.03,18.92-1.55,36.7-1.89,53.57,5.65,2.58-3.19,4.3-5.33,6.75-8.37v-9.49c-3.04-2.27-6.84-5.12-10.94-8.19-3.7,2.16-7.17,4.19-10.63,6.22h-39.61v-7.6c7.33,5.33,14.2,5.32,20.19-.46h35.01c10.38,6.03,18.49,5.47,22.1-1.52,4.28-8.28,1.08-13.44-12.75-19.3-3.38,2.19-7.3,4.73-11.59,7.5-13.23-2.86-29.06,5.38-40.99-8.43-5.5,3.49-10.23,6.49-15.38,9.76-1.92-9.44-3.72-18.31-5.82-28.62,23.14,0,44.41,0,65.67,0s42.06,0,63.62,0c1.76,11.94,3.5,23.7,5.24,35.46-8.56-9.84-21.8-8.25-30.51-14.92-4.02,2.07-7.63,3.93-10.94,5.63-1.16,12.1.55,17.67,7.07,17.97,6.42.29,12.97-2.16,19.79-3.48,1.67,2.27,3.44,4.68,5.67,7.71-6.5,16.24,8.47,22.78,16.55,32.47v51.05c-3.54-1.44-6.39-2.6-9.2-3.75v-37.57c-.31-.35-.81-.83-1.22-1.38-8.17-10.92-18.4-14.42-32.36-12.12-9.77,1.61-20.22-.81-30.09-2.32-4.77-1.31-9.53-2.62-14.19-3.9-2.98,2.73-5.23,4.79-7.73,7.08v9.73c1.92,1.92,4.1,4.09,6.38,6.37h9.81c3.5-.74,5.6-8.17,11.6-3.42-4.3,4.34-8.4,8.47-12.19,12.28,1.26,3.9,2.17,6.72,3.18,9.82,11.79,2.83,14.73,11.77,15.73,22.31.7,7.34,2.11,14.61,3.04,20.82-2.06,4.43-3.8,8.19-5.72,12.32,4.33,4.64,8.39,8.97,13.24,14.16-3.79.35-7.28.67-10.54.97-3.42-2.24-6.53-4.28-8.95-5.87-7.02-9.19,3.24-13.73,4.11-21.32q-3.47-9.66-10.72-13.5c-13.38,4.17-13.75,4.67-13.37,18.23,1.25,1,2.53,2.02,4.31,3.44-3.95,13.99,6.01,21.82,15.22,30.78h22.49c1.27,3.27,2.43,6.25,3.83,9.85h-40.08c-4.98-9.22-10.02-18.55-14.63-27.08,1.93-4.8,3.42-8.49,4.73-11.76-3.26-7.31-7.63-11.95-15.42-12.48Z"/>
    <path class="cls-5" d="m187.43,891.86c7.98-5.21,11.79-11.32,10.01-19.51-1.72-7.94,3.67-12.9,7.78-18.95-1.87-3.8-3.68-7.47-6.39-12.95,1.91-2.67,4.97-6.94,8.33-11.63,3.39,3.13,6.09,5.64,8.77,8.12,9.66.02,13.6-2.46,15.84-9.25,3.07-9.3-5.14-11.57-10.19-16.4,3.57-3.25,7.14-6.5,10.49-9.56,4.98.35,10.04.7,15.67,1.09,5.73,5.41,6.06,11.7,2.9,19.05-6.08,14.11-11.74,28.39-17.61,42.69-6.48-1.33-8.3-10.61-17.23-7.62-2.14,2.02-5.13,4.85-7.98,7.54-.32.84-.62,1.46-.79,2.11-1.84,7.15,7.08,11.19,5.08,18.94-1.84,7.11,3.43,12.08,9.8,16.79-.89,5.58-1.82,11.44-2.76,17.34-10.18-1.97-13.75.46-18.06,11.74,1.93,3.13,3.86,6.28,5.79,9.41v12.29c-1.99,3.22-3.91,6.33-6.47,10.48,3.51,4.57,7.17,9.32,11.83,15.38,0,11.24,1.39,24.92-.43,38.18-1.54,11.25-7.07,21.85-17.83,28.23-1.43.85-3.35.94-5.06,1.24-1.73.3-3.56.84-5.22.56-16.2-2.81-29.04,2.25-38.63,15.56-1.54,2.14-3.89,3.7-6.51,6.12-2.06-9.23-3.91-17.56-5.98-26.81,8.3.39,15.19,1.33,19.66-5.76v-10.54c-3.45-2.71-7.16-5.63-10.69-8.41-3.31,1.91-6.19,3.58-9.51,5.5v-21.17c4.32.53,8.5,1.05,13.13,1.62,2.01-1.59,4.52-3.58,7.08-5.61v-10.2c-7.48-5.31-4.4-13.99-5.09-21.68-.61-6.76.6-13.36-2.36-20.27-2.76-6.42,2.61-12.22,6.7-17.09,3.97-4.72,8.85-8.7,13.88-13.54-4-19.66,6.36-34.8,17.49-50.9,2.67,8.04,2.85,14.22-4.1,19.1-6.63,4.66-4.69,12.26-4.77,18.32-.33,25.4.43,50.82.72,76.23.1,8.68.02,17.36.02,23.87-3.06,5.04-5.19,8.53-7.28,11.97,2.53,4,4.83,7.66,7.85,12.44,5.12-1.13,10.58-2.33,16.21-3.56.33-4.6.57-7.96.84-11.8-8.09-8.3-4.75-19.02-5.02-28.92-.49-18.15.03-36.34.08-54.51.04-11.63,0-23.27,0-35.28Z"/>
    <path class="cls-5" d="m734.54,168.92c1.29,3.06,2.58,6.11,3.87,9.17-.6.32-1.2.65-1.8.97,3.73,2.84,7.46,5.67,10.8,8.22,3.72-1.84,6.76-3.33,10.98-5.42.76-2.78,1.75-6.39,2.92-10.63-1.42-2.08-3.07-4.49-5.32-7.77-2.2-.39-5.3-.93-9.66-1.7-6.27-6.44-13.5-13.85-20.93-21.48-15.77,0-31.39.11-47-.04-11.59-.11-21.67-8.36-25.09-21.28,2.77,2.08,5.3,3.07,6.29,4.89,3.78,6.88,9.91,7.03,16.63,6.91,14.34-.27,28.68-.2,43.02-.17,10.06.02,18.83,3.28,26.78,9.57,5.27,4.17,11.35,7.33,17.1,10.9,6.75,4.19,8.95,8.7,4.41,16.8-1.16,2.07-2.18,4.22-3.94,7.65,3.43,3.91,7.24,8.23,11.22,12.76-3.07,3.31-7.28,7.85-10.42,11.22,1.18,8.86,5.21,13.35,14.46,15.36,3.57-3.29,8.04-7.41,11.92-11-1.43-4.13-2.29-6.64-3.05-8.84-3.36-1.98-6.52-3.83-9.03-5.31,5.04-5.87,9.78-11.38,13.79-16.06-2.14-15.29-4.06-28.91-6-42.8h26.81c7.46,6.77,15.15,13.74,22.84,20.71-.26.51-.51,1.02-.77,1.52-2.22-.97-4.44-1.95-7.32-3.21-1.98.95-5.04,2.42-8.57,4.12-1.54,2.93-3.25,6.2-5.35,10.19,1.69,2.19,3.57,4.62,5.65,7.32v6.78c-5.14,8.95-20.87,5.58-21.53,20.14.63,1.22,1.99,3.89,3.6,7.03,2.53,1.28,5.54,2.81,8.5,4.31,6.55-2.97,13.1-6.04,13.3-14.86.03-1.44,1.3-3.26,2.54-4.21,10.36-7.89,11.09-20.33,15.62-31.89,13.72,19.32,24.6,39.66,33.75,60.94.68,1.58.09,3.7.09,7.91-5.76-5.69-10.15-9.9-14.4-14.25-3.93-4.03-8.1-7.29-14.24-7.05-1.57.06-3.57-.49-4.7-1.49-5.82-5.17-11.47-2.67-17.3-.07-1.38,2.66-2.76,5.33-4.7,9.09,2.62,3.4,5.57,7.21,9.11,11.79,6.16-1.73,11.93-3.35,18-5.05,8.5,9.44,17.11,19.01,25.72,28.58.71-.54,1.43-1.09,2.14-1.63h10.01c1.91,4.45,3.61,8.41,5.89,13.72-15.03,0-29.51,0-43.99-.03-.56,0-1.12-.6-1.68-.59q-19.55.13-39.98,20.93v20.29c-2.47,2.45-4.84,4.82-7.68,7.63-3.01-10.49-5.81-20.28-8.74-30.51,2.21-2.29,4.59-4.74,6.96-7.21-1.51-10.01-6.3-14.63-17.22-16.42-1.61-3.15-3.28-6.41-5.12-10,3.27-6.64,9.18-1.53,13.35-2.95,6.15-2.09,9.19,2.21,13.44,4.85,2.91,0,6.01,0,9.12,0,4.18-1.49,8.48-8.69,7.93-13.27-.89-7.43-4.68-9.66-17.9-10.41-1.83,1.64-3.82,3.42-5.98,5.35h-29.44c-3.21-4.73-6.89-10.16-10.66-15.72,9.07-2.83,7.36-10.16,6.4-17.89-3.02-2-6.65-4.41-10.16-6.74-3.91,1.88-7.56,3.64-11.97,5.76-3.09-3.42-6.25-6.93-9.91-10.97,1.31-1.37,2.83-2.98,4.8-5.05v-7.88c.04-1.15.64-1.66,1.8-1.53Z"/>
    <path class="cls-5" d="m567.52,1579.08c3.76,3.88,7.91,8.16,12.38,12.77v90.17c-.38.19-.77.38-1.15.57-4.3-8.62-8.6-17.25-13.45-26.98v-51.74c-7.29-7.15-14.45-14.62-22.11-21.54-5.53-4.99-8.93-10.22-7.84-18.08.73-5.29.14-10.77.14-16.79-8.7-8.59-17.79-17.56-27.1-26.75h-53.38c-4-6.28-8.25-12.95-12.91-20.27,2.71-2,5.22-3.85,8.07-5.95h56.04c3.33,2.32,6.93,4.83,10.4,7.24,3.14-1.07,5.98-2.03,8.16-2.78,1.92-2.71,3.47-4.9,4.92-6.96,1.49-8.67-2.52-13.64-11.97-16.04-2.72,1.24-6.57,2.99-11.93,5.42h-62.02c-2.72,2.54-5.46,5.1-9.15,8.54-1-1.29-1.96-2.51-2.2-2.83,15.5-15.4,30.58-30.38,47.32-47.01h47.42c6.51,2.05,10.89,3.01,14.87,4.84,2.59,1.19,5.07,3.3,6.75,5.6,4.96,6.8,10.05,13.61,13.99,20.99,2.58,4.83,4.49,10.64,4.56,16.03.43,30.2.21,60.41.21,91.54Z"/>
    <path class="cls-5" d="m1472.18,260.19c-12.4.33-24.81.9-37.21.93-12.89.04-25.79-.88-38.65-.43-4.06.14-8.58,2.63-11.9,5.27-5.65,4.49-10.52,9.95-15.84,15.14-.23,5.11-.46,10.19-.72,15.85-10.68-3.13-20.87-6.37-31.21-9.07-10.45-2.72-20.99-5.14-31.58-7.27-12.94-2.6-25.97-4.74-38.95-7.16-.52-.1-.88-1.01-.53-.58,1.12-4.89,2.06-9.01,2.8-12.24-3.05-3.4-5.22-5.83-7.71-8.6h-10.61c-2.11,2.07-4.54,4.45-7.04,6.91.27,3.68.51,7.02.79,10.81h-11.11c0-12.2-1.3-24.57.48-36.5,1.1-7.36-4.5-10.17-6.06-15.41,33.68-5.59,116.93-1.77,134.6,5.94-1.7,1.78-3.34,3.49-4.93,5.15h-88.76c.11-.34.21-.68.32-1.02-5.87-1.73-11.74-3.46-17.07-5.03-9.89,9.2-10.06,10.56-3.54,23.41,6.81.78,12.98,2.42,19.63-3.7,3.39-3.12,11.76-1.17,17.87-1.12,22.01.2,44.03.39,66.03,1.04,4.29.13,8.51,2.29,12.41,4.77h9.15c8.48-8.07,8.8-9.12,6.05-19.42,15.29-2.24,46.32,7.82,59.53,19.5,13.04-.81,25.14,2.63,35.53,11.25,0,.59.01,1.18.02,1.77-.59-.07-1.19-.13-1.78-.2Z"/>
    <path class="cls-5" d="m1575.27,379.88c4.35.23,8.18,1.12,11.71.47,5.6-1.03,8.15,1.92,9.81,6.11,2.46,6.18,4.47,12.54,6.89,19.48h-123.94c-2.07-1.36-5.17-3.4-8.27-5.43.37-.2.75-.4,1.12-.6-8.08-15.6-16.17-31.21-24.33-46.96h49.88c2.08,1.72,4.68,3.86,7.29,6,3.43-.38,6.66-.73,9.89-1.09-.49-.38-.98-.76-1.47-1.14,2.23-1.94,4.46-3.88,7.18-6.25v-8.72c-1.63-1.32-4.59-3.71-8.04-6.49-4.23-.13-9.11.04-13.28,3.82-1.28,1.16-3.81,1.33-5.77,1.34-19.42.09-38.85.06-56.3.06-8.55-6.39-15.56-11.77-22.73-16.93-5.34-3.85-7.93-8.71-5.88-16.38.9-.96,2.76-2.94,4.37-4.67,2.37-9.75-3.03-14.91-11.38-19.16-4.16,3.57-8.79,7.54-12.75,10.94,1.73,5.2,2.85,8.59,4.71,14.18-5.44-2.42-9.19-4.09-12.75-5.67v-15.73c3.14-2.99,6.89-6.54,10.89-10.34h37.76c-3.94,3.19-7.62,6.16-11.33,9.16v10.42c4.7,5.91,9.85,12.53,15.18,19.01,3.95,4.81,9.13,6.63,15.48,6.5,13.89-.29,27.78-.09,42.51-.09,4.61-3.54,9.71-7.47,14.36-11.04,4.97-1.97,9.52-3.78,14.07-5.58.33-5.31.61-9.79.94-15.04,2.99,1.53,5.8,2.97,8.82,4.51,1.28,8.14,6.2,12.23,13.86,15.32,5.21,2.1,8.88,7.93,14.23,13.04-11.77,11.36-22.47,21.6-33.06,31.94-6.49,6.35-12.68,13-19.27,19.25-2.39,2.26-5.43,3.95-8.4,5.48-4.02,2.07-8.25,3.73-11.96,5.37v10.82c1.9,1.51,4.32,3.45,7.7,6.14h10.23c2.02-2.76,4.51-6.18,7.37-10.08,1.39,1.28,3.28,2.69,4.73,4.46,1.26,1.53,2.02,3.47,3.17,5.53h14.17c2.27-3.7,5.18-8.43,7.83-12.73,2.02,3.8,4.48,8.44,6.63,12.47,15.56,1.36,17.36.03,19.7-13.29,2.78-2.77,5.47-5.45,8.44-8.41Z"/>
    <path class="cls-5" d="m329.72,1419.23c-1.74-9.72-3.4-18.97-5.12-28.52h158.71c1.53,1.68,3.47,3.83,6.01,6.64h-18.41c-9.51,9.68-19.17,19.69-29.03,29.52-20.87,20.8-41.81,41.53-62.82,62.19-1.89,1.86-4.37,3.29-6.82,4.38-4.16,1.86-8.52,3.29-13.17,5.05-3.99-9.52-8.36-19.95-13.06-31.14h26.72c1.39,1.16,3.73,3.12,6.64,5.54,2.76-.32,6.03-.69,8.07-.92,2.74-2.76,4.94-4.96,7.69-7.73v-8.48c-1.62-1.36-4.53-3.8-7.72-6.49-4.56-.08-9.46.06-13.62,3.85-1.26,1.15-3.8,1.26-5.76,1.29-8.67.13-17.34.06-27.08.06-1.96-5.79-3.95-11.69-6.18-18.26h30.47c5.26-4.03,10.11-7.75,16.42-12.59,1.32-.25,4.48-.84,7.4-1.38,1.9-1.99,3.93-4.12,6.1-6.41v-9.45c-3.5-2.64-8.26-6.25-10.85-8.21-15.91.79-11.56,15.67-20.23,21.07h-34.37Z"/>
    <path class="cls-5" d="m826.04,1893.15c3.87.7,7.68,1.4,11.6,2.11,2.2-1.91,4.47-3.87,7.48-6.48,9.13,9.03,18,17.81,26.66,26.38v14.54c-22.99,6.68-39.48-3.05-53.3-19.73-1.08-4.2-2.17-8.4-3.56-13.79-4.32-.94-9.18-2-15.77-3.43-1.7-1.31-4.89-3.77-8.81-6.79,1.41-2.45,2.94-5.13,4.81-8.4-4.13-5.48-9.03-11.99-14.47-19.23,2.79-3.51,6.39-8.03,10.57-13.28-2.99-4.39-5.78-8.48-9.55-14.02,2.34-4.21,5.24-9.43,8.45-15.2-2.62-3.27-5.55-6.92-9.05-11.28-4.99,1-9.8,1.97-15.12,3.04-.34-1.19-1.03-3.66-1.81-6.44h49.98c5.21,4.89,11.06,10.38,16.79,15.77,15.59,1.02,31.03,2.02,46.78,3.05-.59,5.77-1.17,11.44-1.75,17.05-12.79,2.76-15.62,5.81-15.86,18.15,4.33,2.93,9.21,6.24,15.04,10.18v24.62c-.72.63-2.5,2.17-4.47,3.89-5.43-5.57-10.71-10.99-16.07-16.49h-10.26c-7.94-10.59-19.4-5.87-23.9,5.12,1.77,3.36,3.61,6.86,5.59,10.64Z"/>
    <path class="cls-6" d="m827.81,728.16v31.8c-1.23,1.36-3.03,3.34-4.83,5.33h-22.73c-3.63,7.88-7.25,15.75-11.36,24.68,4.89,4.81,10.25,10.08,16,15.73v8.32c-10.03,6.9-16.22,19.11-29.12,24.37-5.79-6.25-11.15-12.04-16.52-17.84-9.49,4.09-17.84,7.69-26.1,11.24-3.49,8.85,3.28,19.39-5.22,27.87-12.85-2.5-26.73,3.05-39.86-3.57v-24.61c-8.71-3.51-16.83-6.78-26.86-10.83-4.76,5.43-10.17,11.6-16.08,18.33-13.06-7.83-21.81-18.11-31.36-29.31,6.56-7.29,12.41-13.81,17.9-19.92-3.66-8.29-7.06-16-10.66-24.15h-23.6c-1.25-1.7-2.67-3.62-4.14-5.61,0-10.83-.09-22.05.11-33.25.03-1.45,1.55-2.87,2.65-4.79h24.42c3.83-8.92,7.39-17.23,11.24-26.21-5.28-4.72-10.93-9.77-14.76-13.19-4.18-11.88,6.56-13.76,8.71-20.2h14.85c-4.84,5.44-8.84,9.93-13.64,15.32,5.56,5.49,10.73,10.6,16.35,16.15-4.89,11.81-9.68,23.38-14.83,35.81-7.25,3.04-17.25-2.77-25.06,4.37v21.06c5.24,0,10.27-.09,15.31.02,9.45.2,10.82,1.71,13.68,10.63,2.07,6.45,5.18,12.57,7.84,18.83,1.02,2.4,2.08,4.78,3.24,7.43-5.65,5.95-10.79,11.36-16.98,17.88,5.78,5.8,10.94,10.97,16.88,16.94,6.92-6.37,12.91-11.87,18.27-16.8,12.53,5.2,24.46,10.15,37.39,15.52v21.67c11.32,4.65,18.02,3.79,24.84-2.98v-19.38c11.8-4.95,23.36-9.81,36.14-15.17,5.1,4.79,10.97,10.3,17.76,16.69,5.69-5.41,10.98-10.45,16.95-16.13-6.19-6.53-11.1-11.72-16.89-17.82,4.69-11,9.53-22.37,15.01-35.23,6.16-5.18,15.6-.05,24.22-3.18v-22.86h-24.39c-3.47-9.3-6.6-17.69-9.73-26.08.52-.44,1.03-.88,1.55-1.32,1.1,1.95,2.2,3.89,3.77,6.66,6.25-9.78,9.41,1.82,15.07.55-.64,4.11-1.24,7.99-1.97,12.67,3.94.2,7.27.37,10.89.56.82-1.92,1.47-3.44,2.15-5.03,4.52,3.01,9.03,6.01,13.53,9.02Z"/>
    <path class="cls-6" d="m1189.11,662.36c4.06,4.96,8.11,9.92,13.11,16.03-6.87,5.84-13.45,11.43-19.34,16.44,4.13,9.74,7.66,18.06,11.7,27.58h26.74v38.18c-.71.78-2.51,2.75-4.3,4.72h-22.72c-3.65,7.92-7.28,15.81-12.29,26.7,4.69,3.97,10.47,8.87,16.97,14.37v7.71c-9.97,6.75-16.28,18.32-29.24,24.79-5.23-6.67-10.3-13.14-14.91-19.01-11.14,4.82-19.49,8.44-27.73,12-3.12,8.99,3.22,19.48-5.06,27.81-13-2.57-26.99,3.31-39.71-3.71v-24.31c-8.62-3.52-17.01-6.95-26.82-10.96-4.76,5.56-9.92,11.58-15.64,18.25-13.39-7.38-21.97-17.85-31.94-29.06,6.33-7.25,12.23-14,17.74-20.32-3.74-8.42-7.16-16.09-10.66-23.96h-21.43c-4.78-2.4-6.58-4.86-6.13-10.3.8-9.63-.24-19.42-.51-29.14,3.74-.65,7.48-1.29,11.22-1.94-.06-.21-.13-.42-.19-.63h14.21c.46-4.01.9-7.86,1.24-10.81,3.46-2.65,6.21-4.76,9.67-7.4,1.96,1.65,4.16,3.5,6.12,5.15-2.08,6.61-4.01,12.75-5.89,18.76-8.43,3.03-17.86-2.09-25.81,4.51v21.26c5.87,0,11.31.03,16.75,0,5.38-.04,9.27,2.05,11.38,7.19,3.46,8.46,7.15,16.84,10.56,25.32.6,1.49.26,3.35.36,5.15-5.13,5.55-10.19,11.02-16.19,17.52,6,5.5,11.2,10.28,17.47,16.02,6.16-5.65,12.13-11.12,17.74-16.26,12.52,5.22,24.71,10.29,36.88,15.36.39,8.06.75,15.46,1.16,23.86,6.69.35,12.43.65,17.74.93,11.23-6.27,4.36-16.66,7.73-26.22,4.61-1.78,10.61-3.93,16.46-6.42,5.66-2.41,11.17-5.18,17.89-8.33,5.43,5.12,11.29,10.64,18.57,17.49,5.31-5.58,10.34-10.87,16.07-16.89-5.52-5.91-10.38-11.13-16.22-17.39,4.54-10.83,9.31-22.23,14.68-35.05,6.24-5.35,15.66-.35,24.48-3.29v-22.87h-23.96c-5.24-12.53-10.05-24.04-15.15-36.26,5.03-5.29,10.18-10.7,16.15-16.97-4.5-5.03-8.52-9.51-13.96-15.59h15.01Z"/>
    <path class="cls-5" d="m1098.73,1547.58c-9.58-9.3-18.99-18.43-29.09-28.24.95-6.16,1.96-12.75,2.91-18.92h14.14c2.55-3.62,4.29-6.09,6.71-9.52-.91-3.37-2.03-7.48-2.97-10.97-4.12-1.79-7.32-3.18-12.4-5.39v-7.25c7.32-.92,12.91-.86,16.2,5.58.53,1.04,2.22,1.47,3.31,2.27,7.56,5.58,10.82,12.56,10.36,22.36-.83,17.83-.24,35.72-.24,53.73-1.94,3.03-3.93,6.13-6.69,10.43,4.39,4.24,8.93,8.62,13.34,12.87,3.78-1.7,6.48-2.92,9.12-4.12,5.87,3.81.11,7.08-.33,12.49,6.16,13.8,13.04,29.23,20.07,45v78.02c8.09,8.26,14.54,14.85,22.4,22.87h23.53c.75,2.71,1.46,5.29,2.15,7.81-1.96,1-2.8,1.79-3.66,1.82-8.32.3-16.65.71-24.97.61-7-.09-13.92-.96-18.28-7.63-1.12-1.72-2.54-3.25-3.45-4.4h-12.72c-3.69,3.45-7.49,7.02-12.77,11.97-16.78,0-35.68.19-54.57-.16-3.84-.07-8.11.05-11.49-3.51-2.11-2.23-5.71-3.08-8.43-5.82h64.14c6.62-5.74,13.18-10.13,17.9-15.97,3.13-3.88,5.01-9.81,5.08-14.86.45-31.25.23-62.52.23-93.13-10.04-9.73-19.66-19.07-29.52-28.63v-29.3Z"/>
    <path class="cls-5" d="m697.68,1560.7h13.79v17.8c-3.22-.64-5.44-1.09-9.22-1.84-2.14,1.24-5.61,3.24-9.77,5.65h-37.64c-4.15-2.63-9.08-5.76-14-8.87-.77-7.83-1.51-15.44-2.24-22.89,7.04-8.85,14.02-17.61,21.75-27.33,0-9.79-.13-20.91.09-32.02.05-2.7.41-6.18,2.09-7.92,11.95-12.34,24.28-24.31,37.53-37.44,0-4.06-.5-9.99.14-15.81.63-5.65,2.43-11.16,4.09-18.37,4.7,4.36,7.65,7.1,10.47,9.71v47.24c-4.28,4.17-8.71,9.36-14.04,13.4-4.76,3.61-10.52,5.95-16.57,9.24-7.3,11.62-3.8,18.47,12.39,21.85v23.6c-1.96,6.38-3.41,11.08-4.75,15.44,2.27,3.3,3.96,5.77,5.87,8.56Z"/>
    <path class="cls-5" d="m982.97,1884.28c3.6-3.69,7.21-7.39,11.14-11.42-3.5-5.25-6.24-9.36-8.29-12.43,0-14.1.36-27.21-.22-40.29-.17-3.77-2.34-7.97-4.8-11.01-4.75-5.86-10.35-11.04-15.47-16.36h-17.52v-19.18c4.3.65,8.88.19,12.09,2.06,8.36,4.86,14.23,1.87,20.04-4.48v-9.07c-9.37-14.37-18.49-6.59-27.84-.17-1.64-1.99-4.23-3.69-4.32-5.5-.23-5.05.59-10.15,1.04-15.89,4.95,4.02,8.65,7.02,13.71,11.13h66.21c.33,2.98.6,5.3,1.04,9.29-4.53-.92-8.61-1.29-12.32-2.64-3.69-1.34-7-3.66-10.44-5.53-3.64,2.32-6.44,4.1-9.21,5.87-.97,2.88-1.92,5.72-3.06,9.12,1.31,1.7,2.88,3.45,4.13,5.41,3.25,5.07,7.42,5.87,13.04,3.92,5.34-1.85,11-2.79,17.48-4.36.79,20.68,1.52,39.78,2.25,58.91-4.94-1.71-9.86-3.41-15.8-5.47-.24-8.41-1.79-17.89,6.41-27.04-4.27-4.24-8.66-8.61-11.56-11.49-10.08.53-13.7,5.45-15.87,13,7.1,7.8,5.47,17.95,5.36,27.93,6.97,7.15,10.78,16.21,13.1,31.53-1.86,2.02-3.9,4.22-5.56,6.02v11.87q10.54,8.55,22.13.74c.11-1.71.3-3.73.36-5.74.07-2.05.01-4.11.01-6.63-1.6-1.86-3.37-3.92-5.08-5.9.48-4.36.95-8.65,1.48-13.52,1.61-.61,3.45-1.31,6.52-2.47v49.85c-2.79,2.5-6.73,6.02-9.89,8.84-12.5,4.81-19.44-3.19-25.57-10.3-3.84-4.45-7.82-6.2-12.98-7.04-.6.07-1.19.14-1.79.22,0-.59.01-1.19.02-1.78Z"/>
    <path class="cls-5" d="m1284.83,1301.69c3.81-3.14,7.63-6.28,11.21-9.24-.11-2.53-.24-5.25-.36-7.97.03-1.17.66-1.65,1.8-1.53,1.29,3.05,2.58,6.11,3.87,9.16-.6.32-1.2.65-1.8.97,3.72,2.84,7.45,5.68,11.1,8.46,4.57-2.69,8.63-5.07,13.53-7.95-1.17-5.45-2.28-10.62-3.38-15.73-4.13-.77-7.23-1.35-11.75-2.2-6.18-6.33-13.4-13.74-20.68-21.2h-45.57c2.4-3.94,4.2-6.89,5.8-9.53h129.94c-.49,3.02-.12,5.88-1.36,7.59-4.97,6.83-10.4,13.34-15.73,19.91-2.96,3.65-6.06,7.2-10.25,12.17-2.45-4.54-4.48-8.32-6.1-11.31,2.96-5.06,5.33-9.11,7.89-13.5-2.42-3.49-4.84-6.98-7.3-10.54h-11.29c-1.61,1.86-4.07,4.69-6.66,7.69v7.59c1.11,1.19,2.98,3.19,5.75,6.15-.87,2.88-1.5,6.46-2.99,9.65-4.17,8.94-4.09,10.63,3.29,19.05-3.06,3.21-6.24,6.56-9.76,10.27-3.76-2.32-7.38-4.56-11.67-7.21-4.18,2.53-8.7,5.26-12.47,7.54.38,5.52.68,9.71,1.06,15.23-10.2,5.75-21.09,11.89-30.38,17.13-7.77-2.16-13.99-3.89-21.81-6.06-2.53,6.3-4.83,12-7.51,18.67-1.43.49-4.25,1.45-8.06,2.74,2-18.57-4.11-31.07-25.23-32.63,2.11-2.94,4.36-6.09,6.74-9.41,4.68,2.99,8.75,5.59,12.74,8.13,3.46-1.74,6.75-3.39,10.03-5.04,1.07-2.98,2.07-5.78,3.11-8.71-3.19-6.82-7.46-12.64-16.39-13.83,15.76-2.84,31.45-1.1,45.54-1.81,5.83,2.69,10.59,4.89,15.34,7.09,1.04,3.88-2.48,4.37-4.54,5.8-3.96,2.75-6.97,5.98-5.2,11.11,1.34,3.88,4.54,6.19,8.65,6.36,5.38.21,8.17-2.91,8.87-7.55-.16-6.83-7.84-9.23-8.04-15.53Z"/>
    <path class="cls-5" d="m1024.37,184.64c1.89-4.03,3.59-7.64,5.73-12.19v-10.83c-4.37-2.01-8.82-4.06-13.92-6.41-3.51-10.05,2.31-19.6,5.84-30.69,2.27-.84,5.58-2.06,9.19-3.39-.34,5.34-.61,9.54-.92,14.25,4.94,1.82,7.41,8.33,14.93,5.28-2.14,10.85-4.18,21.26-6.44,32.73,3.16-2.63,5.46-4.55,8.21-6.84,3.78.95,7.68,1.93,11.79,2.97-4.9,4.33-9.63,8.51-13.82,12.22,2.18,9.64,5.96,15.88,15.47,16.23,15.18-8.12,15.62-8.09,26.17,1.9q-2.27,6.65-15.98,5.35c-5.78-1.31-11.56-2.61-17.3-3.91-3.05,4.6-5.42,8.2-8.14,12.3,2.82,3.66,5.66,7.33,9.38,12.15,6.29-1.93,12.49-3.84,20.53-6.32-3.67,4.96-5.96,8.07-8.55,11.56-5.61-1.98-10.62-2.49-16.78,1.52-4.64,3.02-12.14,1.91-18.39,2.3-4.23.27-8.52.18-12.75-.15-6.24-.48-12.12-1.64-16.28-7.29-2.83-3.85-6.59-7.02-9.71-10.27-4.26-.29-7.95-.53-11.64-.78l-.46-1.43c2.54-1.26,5.09-2.52,7.56-3.76,1.37-2.65,2.77-5.35,4.74-9.16-2.25-4.12-4.88-8.95-6.65-12.21-3.61-17.23.87-30.58,12.28-41.3,2.44,6.19,4.77,12.08,7.09,17.97.59-.19,1.19-.38,1.78-.58.13,2.72.27,5.43.41,8.37,1.8,1.94,3.65,3.94,5.54,5.98-2.29,9.41-4.57,18.78-6.71,27.54,8.11,6.33,15.13,9.64,23.31,1.89v-13.26c-1.89-4-3.59-7.61-5.55-11.75Z"/>
    <path class="cls-5" d="m1487.1,1466.82c-10.33,18.18-13.13,39.18-28.63,56.17-.57,3.65-1.47,9.45-2.38,15.26-.69-.07-1.39-.14-2.08-.21v-18.64c1.21-1.42,2.98-3.48,4.79-5.59-.44-2.86-.89-5.77-1.44-9.39-1.81-1.71-4.05-3.83-6.89-6.51-4.77,1.56-9.84,3.23-16.43,5.39,2.14,7.29,3.88,13.23,6.35,21.66v42.74c-6.17,5.79-11.71,10.99-17.49,16.41-7.88-.27-10.47-2.78-13.08-10.6-7.72-23.16-6.4-46.96-6-70.39,4.21,1.25,8.31,2.46,11.83,3.5,3.87-3.14,6.76-5.48,9.75-7.89.28-2.1.61-4.57.76-5.66-2.39-5.75-4.32-10.39-5.83-14.03,2.71-2.94,4.17-5.33,6.3-6.65,3.58-2.22,7.54-5.18,11.43-5.33,15.94-.6,31.92-.25,49.05-.25Z"/>
    <path class="cls-5" d="m932.62,342.36v-21.79c5.58-5.11,9.7-12.83,19.53-12.25,1.68-1.88,3.58-4.01,5.96-6.66v-9.36c-3.57-2.56-8.57-6.15-13.46-9.67-1.68,1.85-2.5,2.74-4.63,5.09-.61-4.54-1.02-7.57-1.47-10.91h104.14v5.11c-2.86.42-5.8.85-8.02,1.18-5.78,5.53-11.22,10.64-16.56,15.86-21.56,21.03-43.12,42.06-64.6,63.16-3.7,3.63-6.83,7.85-10.63,11.37-3.03,2.81-6.68,4.96-10.08,7.43-8.75-9.86.2-18.81-.99-28.78,3.56,2,7.12,4,11.8,6.64,1.92-.21,5.21-.56,8.49-.91,1.72-1.93,3.64-4.07,6.02-6.72v-8.61c-1.58-1.67-4.16-4.38-6.52-6.88-7.13-2.06-12.47,1.54-18.97,6.68Z"/>
    <path class="cls-5" d="m1693.48,1021.91c2.21,2.34,4.09,4.32,5.71,6.03,2.69,16.38-3.89,30.92-7.63,46.01v-28c-9.8-9.31-19.68-17.8-28.28-27.42-2.63-2.94-2-8.95-2.32-13.6-.21-3.01.76-6.09.86-9.14.28-8.56-6.94-12.64-11.67-18.01-4.52-5.13-10.02-9.43-15.52-14.49h-15.72c-.49-8.69-.96-17.05-1.47-26.09h14.14c12.02,7.69,13.92,7.63,24.61-2.34-.79-3.81-1.73-8.29-2.54-12.19-6.31-3.87-10.69-6.3-17.5-1.29-4.11,3.02-11.57,1.6-17.52,2.13-1.23.11-2.47.02-3.73.02-.96-2.88-1.88-5.65-2.78-8.34,2.76-1.87,5.28-3.56,7.99-5.39h31.8c5.96,6.03,11.75,11.9,18.45,18.68v64.03c-1.58,2.53-3.54,5.65-6.17,9.86,3.52,4.57,7.22,9.38,10.88,14.13,4.36-1.63,8.08-3.01,11.13-4.14,1.76-3.41,3.15-6.11,5.16-10-2.06-3.28-4.55-7.24-7.56-12.03v-53.56c5.61,9.03,9.64,18.31,9.67,28.75.06,18.55.02,37.1.02,56.4Z"/>
    <path class="cls-5" d="m789.26,1695.27c-3.65-3.2-7.31-6.4-10.97-9.61-7.17,4.42-13.24,7.63-14.58,16.73-.66,4.46-6.99,8.18-10.91,12.09-7.74,7.73-15.59,15.36-24.26,23.89h-34.89c-5.16-5.26-12.51-12.76-19.87-20.25-5.33-3.53-14.01,1.87-19.56-6.1,4.68-9.05,8.96-17.32,13.23-25.59.86.23,1.71.46,2.57.69v-23.61c4.17-1.15,7.57-.54,12.08,1.61,8.01,3.81,17.05,5.51,25.98,8.2,2.59-2.53,5.02-4.91,7.17-7.02v-11.26c-1.74-1.23-4.27-3.02-6.8-4.81.05-.75.11-1.5.16-2.26-5.94,1.92-11.89,3.85-19.12,6.19-.16-.12-1.73-.91-2.68-2.16-1-1.32-1.4-3.08-1.18-2.57h-19.94c-2.45,2.7-5.31,5.87-8.32,9.19v21.1c-1.55,1.61-3.36,3.5-5.9,6.13-1.29-13.95-2.48-26.82-3.79-40.87,13.09,0,26.05-.73,38.88.22,11.2.83,19.94-1.88,25.81-11.42,3.29,1.1,6.13,2.05,8.31,2.78v40.57c-4.33,10.24-11.64,10.29-18.1,9.55-6.16-.71-12.06-3.65-18.61-5.79-3.06,3.32-5.93,6.43-9.13,9.9-.12,10.24,7.08,17.46,18.21,15.5v17.56c5.01,5.2,10.52,5.62,17.39,2.74,4.55-1.9,9.9-1.93,15.09-2.29,15.29-8.56,25.83-22.63,38.28-34.54,6.51-6.22,3.62-15.63,4.29-23.93,3.54.6,7,1.19,11.39,1.93,6.2-2.52,9.58-8.27,11.2-15.36l-.2.17c1.52-.34,3.06.14,3.31,1.55,2.4,13.37,4.86,26.78-1.24,39.91-.9.94-2,1.36-3.31,1.27Z"/>
    <path class="cls-5" d="m566.91,273.47c-22.34,3.53-44.67,7.05-68.38,10.79,4.35-6.64,7.48-11.43,11.01-16.83-4.51-4.35-8.5-8.19-12.75-12.28-17.54,10.7-36.31,4.29-54.28,5.88-8.05.71-16.25-.24-24.99-.46,5.08-4.81,9.17-8.67,13.14-12.44-2.71-6.29-3.72-12.06-12.47-12.31,2.68-1.92,4.38-3.14,6.05-4.33.71.33,1.41.47,1.85.88,18.56,17.86,11.75,14.77,37.94,15.04,6.59.07,13.19.01,18.69.01,4.85,2.58,8.82,4.69,13.71,7.29,4.44-3.84,8.61-7.44,12.33-10.66-1.28-3.92-1.85-6.51-2.96-8.85-2.46-5.18-10.74-8.97-14.36-5.29-6.36,6.47-13.98,3.12-20.82,4.62-5.79,1.27-12.18.36-18.24-.23-4.59-.44-9.37-1.42-11.63-6.99,15.39-2.51,30.45-4.97,45.45-7.42,4.25,4.66,8.87,6.21,14.31,4.01,4.42-1.79,8.8-3.66,14-5.84,17.93,17.82,35.45,35.23,52.97,52.64-.19.91-.38,1.83-.57,2.74Z"/>
    <path class="cls-5" d="m1467.73,1037.97h60.41c.99,2.96,2.12,6.32,3.11,9.31-7.2,7.63-6.7,10.31-3,18.86,2.58,5.97,2.41,13.1,3.77,21.61-3.18-1.95-4.53-2.78-6.14-3.77-6.48,2.51-11.51,10.85-20.92,6.03-3.06-7.07-.66-14.62-1.31-21.27,2.31-3.72,4.25-6.83,6.6-10.61-2.92-3.96-5.86-7.97-8.23-11.18h-10.52c-8.16,8.9-8.06,10.14-2.39,20.78,1.66,3.12,2.4,7.44,1.77,10.89-1.86,10.31.19,18.68,6.13,22.19,12.94,3.96,22.11,6.76,31.38,9.6v32.23c-5.46-6.04-9.66-14.11-20.07-9.04-1.92,3.6-4.1,7.68-6.18,11.58,2.23,4.61,4.27,8.84,7.27,15.07-9.56-2.88-10.52-9.26-11.84-14.6-4.59-18.58-7.99-37.46-13.05-55.91-4.24-15.46-10.16-30.47-15.31-45.69-.53-1.56-.8-3.19-1.51-6.08Z"/>
    <path class="cls-5" d="m1655.1,1042.05c-4.94-4.49-10.54-9.58-15.81-14.37v-25.89c-1.41-5.54-8.87-8.33-4.91-14.84-2.2-1.93-4.4-3.86-7.26-6.38-2.2-.36-5.42-.89-9.38-1.55,8.63-5.97,10.72-4.93,29.79,14.21.26,5.4.97,11.74.77,18.04-.2,6.29-.03,11.54,5.98,15.96,6.34,4.66,11.69,10.72,17.05,16.54,2.08,2.26,4.22,5.56,4.26,8.41.3,21.89,1.12,43.86-.38,65.66-.85,12.38-5.6,24.52-8.98,36.67-.62,2.22-3.07,3.93-4.54,5.71h-32.94c-1.03-4.24-2.24-9.29-3.55-14.71,3.89-1.79,7.81-3.58,12.79-5.87v8.98c1.88,2,3.99,4.25,6.04,6.43h10.44c1.79-1.61,4.07-3.64,7.71-6.91-1.65-4.93-3.47-10.4-5.3-15.87-.59.12-1.19.25-1.78.37v-90.6Z"/>
    <path class="cls-5" d="m301.32,589.51c8.62-9.26-1.14-16.88-1.76-23.76.55-4.82.92-8.13,1.51-13.31,4.84-4.13,10.86-9.26,16.26-13.87v-30.56c9.65,8.95,10.64,27.91,1.75,37.36,3.45,20.35-3.17,38.82-14.53,56.61-14.71.95-29.88,3.33-39.65-15.42.88-5.59,2.06-13.55,3.4-21.49.95-5.64,1.76-11.33,3.3-16.82.97-3.44,2.66-6.96,4.94-9.69,3.74-4.48,7.91-8.75,12.5-12.36,5.76-4.53,6.9-10.23,6.37-16.85-.38-4.83-1.53-9.83-.66-14.45.99-5.23-.24-12.17,8.94-13.43,3.51-.48,6.14-6.29,9.46-9.37,1.88-1.74,4.34-2.86,7.56-4.9-.66,4.28-1.14,7.36-1.74,11.27-5.58,5.16-11.66,10.78-17.08,15.8v40.86c-.2.15-1.87,1.39-3.53,2.66-8.44,6.43-13.11,14.31-11.32,25.42.42,2.57-1.73,5.64-2.97,8.37-1.32,2.91-2.96,5.69-4.55,8.68,1.31,2.87,2.54,5.59,3.61,7.93,3.79,1.79,7.11,3.36,10.66,5.04,2.21-1.09,4.93-2.43,7.53-3.71Z"/>
    <path class="cls-5" d="m855.51,286.04v10.4c5.19,6.37,10.64,13.19,16.25,19.89,7.14,8.52,17.44,4.01,26.68,5.96.88,4.52,1.83,9.07,2.6,13.66.21,1.23-.15,2.55-.28,4.22h-37.98c-3.87,5.14-8.02,10.66-12.41,16.51-5.69-4.22-9.01-6.68-12.46-9.23,3.24-3.82,5.76-6.8,7-8.27,2.93-13.41-4.32-26.4,5.78-37.52,1.61-8.93-2.59-14.76-12.07-18.12-3.82,3.36-8.45,7.43-13.08,11.5.97.34,1.93.68,2.9,1.02,1.33,8.5,2.63,17,4.01,25.49,1.43,8.84-2.14,14.96-10.76,18.96-7.44-4.71-18.3-5.66-20.72-18.08,5.38.71,10.6,6.73,15.61,1.46,3.27-3.44,5.61-7.76,8.78-12.28-9.65-6.39-6.48-15.35-7.74-23.76,3.8-3.46,7.85-7.15,12.44-11.32h36.74c-3.92,3.3-7.68,6.47-11.28,9.51Z"/>
    <path class="cls-5" d="m1503.78,870.82c2.1,5.78,4.35,11.97,6.51,17.91-10.92,10.29-23.93,7.35-36.27,7.39-13.1.04-26.23-.81-39.3-.23-4.41.19-9.23,2.83-12.87,5.62-5.38,4.1-9.88,9.34-16.64,15.93,1.29-12.39,2.35-22.28,3.34-32.18.5-5.03.97-10.06,1.3-15.1.29-4.33-.14-8.35,2.95-12.52,3.4-4.59.8-9.75-2.15-12.61v-12.66h15.66c.48.54.96,1.09,1.44,1.63-3.99,1.55-7.97,3.09-11.96,4.64,1.05,1.15,2.11,2.31,3.16,3.46-2.89,8.53,3.54,14.62,6.6,21.28,2.02,4.4,6.88,7.79,11.05,10.85,2.25,1.65,5.72,2.28,8.65,2.32,13.89.23,27.81.56,41.67-.13,5.07-.25,10-3.22,16.87-5.6Z"/>
    <path class="cls-5" d="m1093.47,1420.1c1.38-1.48,2.76-2.97,3.58-3.85,4.11.45,7.43.82,10.78,1.19,5.76-4.76,10.11-9.62,6.31-18.17,4.39-4.96,9.1-10.29,13.82-15.62,2.68,8.76,4.2,16.46-.9,23.87-1.37,1.99-1.66,5.01-1.68,7.57-.14,17.66-.07,35.31-.07,53.49,1.43,1.53,3.26,3.49,5.79,6.21-.77,26.89-1.56,54.38-2.38,83.07-3.52-3.93-5.94-6.62-7.86-8.77v-68.09c-8.67-8.67-17.89-17.88-26.24-26.22-5.72-.3-9.81-.51-15.1-.78,1.53-5.21,2.82-9.62,4.43-15.12,4.97,1.21,8.83,1.38,11.87,3.03,9.23,5.02,11.51,4.88,19.73-3.23v-10.57c-3.65-2.74-8.11-6.11-14.63-11.02-1.11,2.48-1.89,4.21-2.62,5.82-1.21-.51-2.12-.89-3.04-1.28-.63.12-1.26.24-1.89.35.03-.63.07-1.27.1-1.9Z"/>
    <path class="cls-5" d="m842.72,1695.38c1.2,2.41,2.25,4.51,3.37,6.74,3.48,1.66,7.03,3.36,10.85,5.18,12.39-6.19,13.55-10.12,6.59-23.79v-16.17c1.71-1.48,4.46-3.86,8.88-7.69-1.6,19.99,3.21,38.28-1.35,56.52-17,.16-33.46,4.2-42.89-14.93v-36.65c10.46-10.02,20.9-20.01,30.45-29.15,0-10.91.09-19.93-.03-28.95-.08-5.58,1.04-9.82,7.73-10.87,1.58-.25,2.76-2.96,5.17-5.74v12.17c-5.83,4.58-8.03,11.17-6.15,19.69,1.13,5.14.26,10.72.2,16.1-.08,6.71-1.31,12.89-7.41,17.16-6.31,4.42-8.79,10.45-8.16,18.21.41,4.98,1.46,10.44-4.59,13.97-1.7.99-1.67,4.88-2.66,8.19Z"/>
    <path class="cls-6" d="m706.65,699.83c20.67.45,33.29,9.19,42.69,23.62,4.58,7.02,5.75,15.12,4.85,22.38-2.97,23.95-19.62,40.02-39.56,40.17-24.73.19-44.79-13.67-46.94-32.94-2.44-21.85,3.16-46.31,38.96-53.24Z"/>
    <path class="cls-6" d="m1100.79,699.79c20.5.49,33.16,9.15,42.57,23.6,4.58,7.02,5.77,15.09,4.94,22.38-3.16,27.86-24.43,40.35-39.54,40.31-24.76-.07-44.79-13.65-47.01-32.94-2.54-22.1,3.61-46.62,39.04-53.34Z"/>
    <path class="cls-5" d="m197.01,1060.4c5.56-4.91,11.38-10.05,17.6-15.55v39.95c-4.9,2.04-11.2,3.66-16.32,7.04-5.95,3.92-10.55,10-9.18,17.6,1.85,10.25-1.26,17.78-9.19,24.35-5.52,4.56-10.16,10.17-15.81,15.94-.99-4.12-1.66-6.93-2.57-10.73,1.11-1.2,2.76-3.16,4.58-4.92,4.44-4.28,3.99-10.14,4.32-15.3.53-8.28.06-16.69-.78-24.96-.49-4.74,1.99-7.37,5.65-11.35,6.72,1.62,14.1,3.41,21.48,5.2,3.1-5.01,5.7-9.23,8.07-13.06-5.62-13.18-10.52-14.85-21.88-8.02-.87.52-1.54,1.51-2.45,1.79-4.49,1.35-9.53,1.71-13.41,4.01-3.84,2.28-6.53,6.46-10.26,10.37v36.33c-.66.12-1.33.23-1.99.35-.8-3.84-2.12-7.65-2.27-11.51-.24-6.5.38-12.88-7.05-16.52-1.72-.84-2.3-3.95-3.83-6.82,7.96-8.07,15.99-16.22,23.85-24.2h31.43Z"/>
    <path class="cls-5" d="m1412.44,1105.92c3.27,12.06-.5,22.43-7.56,33.63,4.2,4.1,8.55,8.35,12.49,12.19,3.81-1.27,5.95-1.98,8.75-2.91,0,2.27.44,4.04-.09,5.44-1.3,3.42-3,6.43-7.65,6.4-8.71-.07-17.23.06-22.15-9.19-1.04-1.96-3.6-3.14-5.72-4.89v-39.81c10.66-10.37,19.87-19.33,30.09-29.27v-33.39c8.31-6.89,16.87-14,25.93-21.52,1.21,9.86-4.42,16.05-10.19,20.05-9.38,6.49-8.73,14.99-8.49,24.01.17,6.35.79,12.71.51,19.03-.22,4.78-3.33,8.46-6.82,11.67-3.04,2.81-6.03,5.67-9.1,8.56Z"/>
    <path class="cls-5" d="m513.15,1236.22c-2.89,4.07-5.78,8.15-9.61,13.55,4.42,4.42,8.47,8.46,12.46,12.44-6.78,5.04-13.24.39-20.28-4.55-4.98,4.11-9.71,8.02-14.28,11.79,2.28,4.44,3.82,7.43,5.68,11.06,2.52.98,5.65,2.2,9.58,3.73-3.33,1.89-6.28,3.57-10.11,5.75-10.91-12.53-21.59-24.8-32.31-37.12.83-2.19,1.37-3.73,1.99-5.23.64-1.55,1.36-3.06,2.04-4.57-1.58-2.41-3.24-4.96-5.44-8.31-2.98-1.18-6.72-2.66-10.87-4.3-1.91-2.97-4.03-6.28-6.15-9.59,6.71,2.63,12.39,1.95,18.11-1.93,2.04-1.39,5.11-1.75,7.72-1.8,9.71-.2,19.42-.08,31.46-.08-4.1,5.46-7.3,9.71-10.56,14.06-3.44.35-6.46.66-7.62.78-3.08,2.63-5.06,4.31-7.26,6.19v11.31c3.22,2.22,6.52,4.5,9.76,6.75,2.99-1.01,5.84-1.97,9.74-3.29,2.45-12.16,7.4-22.65,23.79-17.33.84-.12,1.56.11,2.15.71Z"/>
    <path class="cls-5" d="m728.08,1422.82c9.32,1.7,17.27,2.91,20.57,12.85-12.76,5.6-11.68,17.14-11.77,28.04-.16,21.07-.05,42.13-.05,64.03-4.11-.95-8.52-3.03-12.71-2.66-4.34.38-8.46,3.14-13.84,5.33v-22.19c-1.17-1.25-2.8-2.99-4.85-5.18v-8.5c.73.67,1.47,1.34,2.2,2.01,6.48-7.81,12.95-15.62,20.44-24.65v-49.08Z"/>
    <path class="cls-5" d="m1286.56,1152.9h-9.64c0-1.21-.39-2.43.06-2.94,3.39-3.91,6.89-7.73,10.46-11.48,4.9-5.15,9.41-10.2,8.65-18.23-.79-8.27-.94-16.64-.72-24.95.11-4.42-.5-9.73,5.53-12.98,7.38,1.8,14.75,3.6,21.81,5.32,3.14-5.02,5.6-8.97,7.89-12.63-4.7-13.14-10.26-15.14-21.36-8.94-3.95,2.21-8.78,2.88-14.13,4.54.32-3.3.59-6.14.93-9.71h26.28c4.93-4.28,9.36-8.11,15.03-13.03,2.3,11.98,4.52,23.52,6.73,35.07-7.79,3.66-15.22,6.1-21.37,10.35-5.43,3.76-8.71,9.51-7.37,17.18,1.57,8.99-1.3,16.52-8.84,22.73-7.17,5.9-13.29,13.04-19.93,19.7Z"/>
    <path class="cls-5" d="m866.96,1783.72c1.83,5.01,3.08,8.45,4.64,12.72-2.24,2.66-4.9,5.8-7.36,8.72h-26.74c-5.09-4.69-10.86-10.01-18.28-16.86h-58.56c-1.26-4.52-2.5-8.95-3.89-13.95h70.71c2.28,2.83,5.07,6.29,7.55,9.37h31.95Z"/>
    <path class="cls-5" d="m602.32,1660.72c7.37,11.85,3.7,26.63-9.88,32.46,0-19.79,0-39.17,0-58.56,0-13.4-.27-26.8.09-40.19.18-6.74-2.37-11.52-7.28-15.94-2.45-2.21-4.96-5.85-5.03-8.9-.46-18.84-.23-37.7.43-56.68,6.43,16.12,11.96,32.34,14.11,49.69,1.98,16.01,5.22,31.86,7.82,47.79.38,2.35.17,4.78.39,7.16.63,7.08,1.91,14.15,1.85,21.22-.05,6.7-1.46,13.38-2.5,21.93Z"/>
    <path class="cls-5" d="m1507.35,277.2c2.66,2.17,5.76,4.7,10.24,8.35-4.69-.64-7.8-1.07-11.48-1.58-1.94,1.23-4.51,2.85-6.81,4.31-2.67,5.91-5.23,11.56-7.63,16.87-17.28,0-33.2.05-49.11-.1-1.09-.01-2.16-1.51-3.73-2.68,1.41-3.32,2.81-6.62,4.9-11.52-3.01-3.97-6.54-8.62-10.36-13.64h73.98Z"/>
    <path class="cls-5" d="m1438.4,1416.31c2-4.04,3.34-6.75,5.04-10.21-1.49-3.19-3.18-6.8-4.87-10.41-1.98-.83-3.95-1.67-5.73-2.42.56-3.32,42.48-4.3,72.3-2.44v7.75c-2.14,1.38-4.42,2.84-5.45,3.5-3.27,6.73-5.95,12.26-8.2,16.88-17.77,0-33.68.05-49.6-.11-1.08-.01-2.15-1.53-3.49-2.56Z"/>
    <path class="cls-5" d="m1468.81,1307.68c-3.9,3.31-7.2,6.1-10.58,8.97v11.76c1.69,1.19,4.23,2.98,7.26,5.12h8.21c2.75-1.77,5.97-3.83,10.23-6.57,1.36,8.73,2.81,15.89,13.46,17.79-3.05,1.88-4.49,3.54-5.95,3.55-14.01.16-28.03.22-42.03-.16-2.63-.07-5.63-1.75-7.72-3.53-5.48-4.69-10.55-9.86-16.13-15.17,10.66-13.58,20.8-26.48,31.92-40.63.27,4.53.45,7.72.69,11.68,3.18,2.15,6.81,4.61,10.64,7.2Z"/>
    <path class="cls-5" d="m634.12,1339.05c2.34,6.19,6.94,11.54,1.43,18.92-4.55-9.27-12.21-10.39-20.76-10.19-11.88.28-23.77.07-38.17.07-17.09-16.67-35.9-35.04-53.48-52.19-9.35-2.63-17.51-4.93-26.64-7.5,6.2-11.19,15.42-9.02,24.3-9.11,19.89,19.93,39.84,39.91,59.89,60h53.42Z"/>
    <path class="cls-5" d="m677.99,1411.1c2.14,2.61,4.28,5.21,6.32,7.7v24.49c-11.86,11.88-24.55,24.6-37.4,37.47v34c-3.37,4.36-5.79,7.49-8.2,10.62-.51-.35-1.02-.69-1.54-1.04,4.76-29.69,9.53-59.37,14.67-91.39,3.96-2.68,9.77-6.1,14.97-10.27,4.17-3.34,7.61-7.58,11.37-11.42l-.19-.16Z"/>
    <path class="cls-5" d="m1485.28,831.97c3.64,7.24,7.1,14.11,10.69,21.26-1.82,2.69-3.48,5.16-5.14,7.62l.18.13c-.19.26-.36.73-.56.75-2.2.17-4.43.55-6.6.33-14.82-1.52-30,2.04-45.92-2.42,1.91-4.61,3.41-8.23,5.23-12.6-.87-2.12-2.01-4.87-3.17-7.69-2.98-1.61-5.85-3.17-8.72-4.73,17.63-3.34,35.4-1.48,54.02-2.66Z"/>
    <path class="cls-5" d="m409.93,1157.71c5.3,4.91,10.61,9.82,16.35,15.13h120.56c2.26-2.85,5.86-7.42,10.56-13.36,1.69,6.08,2.87,10.34,4.13,14.89-2.42,2.55-4.76,5.02-7.22,7.62h-136.91c-2.71-7.05-5.65-14.69-8.59-22.34.04-.83.4-1.49,1.11-1.94Z"/>
    <path class="cls-5" d="m656.96,233.04v32.52h-13.57c-.26-.92-.92-1.95-.71-2.75,3.3-12.82-7.32-18.82-13.54-26.9-.86-1.12-2.94-1.85-4.46-1.86-15.23-.13-30.46-.08-47.39-.08-5.57-5.11-12.5-11.45-20.4-18.69h15.43c1.92,2.51,4.83,6.34,7.22,9.47,20.32,0,39.04.29,57.75-.14,7.93-.18,14.67,1.04,19.68,8.43Z"/>
    <path class="cls-5" d="m711.63,1601.12c.89,4.21,1.77,8.43,2.66,12.64.46.84.92,1.67,1.38,2.51-6.2,5.65-12.4,11.31-17.05,15.55h-50.6c-.82-1.38-1.8-3.04-3.06-5.16,1.49-1.58,3.1-3.29,4.6-4.87,8.19,4.12,18.65-3.88,26.67,6.41,4.51-.99,9.97-2.18,15.18-3.32,1.96-7.84,1.83-13.95-3.86-19.42-5.69-.31-11.93-1.81-16.64,5.1-8.67-3.49-20.12,4.49-28.49-6.21,3.1-3.23,5.91-6.16,8.34-8.69h43.67c1.5,1.32,3.53,3.1,6.22,5.48,2.86-.54,6.14-1.17,9.43-1.79,1.17.04,1.68.63,1.55,1.78Z"/>
    <path class="cls-5" d="m955.26,1897.88c-1.38.07-2.76.14-4.15.21-6.17-5.25-1.53-12.09-3.06-17.62,3.04-5.65,10.4-6.75,12.02-14.77-7.32-10.71-2.29-26.17-10.87-38.1-.62-6.85-1.24-13.69-1.91-21.08,4.19-.53,7.61-.97,11.32-1.44,4.3,4.59,8.53,9.1,13.47,14.37-.31,18.14,4.68,37.61-6.53,57.7,4.27,2.42,7.84,4.45,11.41,6.47-.3.71-.6,1.43-.9,2.14-7.83.95-14.96,3-18.63,10.49-.58.74-1.31,1.28-2.19,1.63Z"/>
    <path class="cls-5" d="m331.92,1145.91c0-11.47-.6-22.98.29-34.38.37-4.68,3.94-9.12,7.75-13.07v-24c1.87-2.2,3.83-4.51,6.42-7.55-2.69-4.72-5.51-9.66-7.76-13.59-9.75-3.6-14.17,2.89-19.37,7.5-.67-.34-1.34-.69-2-1.03.8-2.62,1.09-5.55,2.5-7.79,6.52-10.37,17.93-11.87,28.53-14.24,4.93-1.1,10.32-.19,16.58-.19-12.37,36.12-24.35,71.7-30.66,108.85l-2.28-.52Z"/>
    <path class="cls-5" d="m467.68,1427.12c-22.79,22.46-44.44,43.79-67.23,66.26h-8.4c27.59-27.23,54.45-53.74,81.24-80.18h35.96c4.77,4.68,9.13,8.95,14.2,13.92h-55.78Z"/>
    <path class="cls-5" d="m463.78,1533.93h39.25c5.13,4.84,11.18,10.55,18.62,17.56.45,5.96,2.24,13.93,1.26,21.56-.75,5.81,1.56,8.78,4.91,12.09,7.37,7.28,14.79,14.51,21.9,21.48v22.55c-15.16-14.1-20.51-33.17-35.51-43.46-4.16-10.76,2.65-22.92-6.33-32.53v-8.21c-1.99-1.95-4.46-4.36-6.84-6.69-15.2,1.13-17.51,3.45-17.86,19.73-6.53-8.11-12.09-15.02-19.39-24.08Z"/>
    <path class="cls-5" d="m1408.07,774.82c9.1,8.97,18.21,17.93,27.95,27.53h31.22c3.39,4.51,6.4,8.52,9.48,12.61-7.11,2.63-46.61,3.38-65.78,1.39-1.55-13.47-3.1-26.93-4.65-40.38.59-.38,1.18-.76,1.77-1.14Z"/>
    <path class="cls-5" d="m248.79,645.95c-.34-15.13,6.61-28.68,10.54-44.02,4.82,4.39,8.94,8.13,14.07,12.8h23.81c-6.1,13.57-14.99,24-22.13,33.99-8.8-.92-16.93-1.78-26.29-2.76Z"/>
    <path class="cls-5" d="m391.06,1361.85c4.58-5.19,8.13-10.1,12.62-13.92,2.16-1.84,6.1-1.63,10.12-.7-2.69,2.94-5.37,5.87-8.27,9.04-2.13,7.3.77,13.01,9.39,18.6h-90.92v-13.02h67.06Z"/>
    <path class="cls-5" d="m608.93,1298.9c-2.89-.27-5.78-.53-9.63-.89-3.33,3.79-7.1,8.09-11.02,12.56,3.95,4.82,7.48,9.13,11.64,14.21-3.15.38-7,.84-10.77,1.29-22.12-21.66-44.2-43.27-66.26-64.86,1.6-1.18,3.93-2.91,7.12-5.26,2.72,1.81,6.09,3.45,8.68,5.91,9,8.56,17.84,17.28,26.49,26.18,4.53,4.66,9.02,7.29,16.14,6.09,6.46-1.09,13.29-.35,19.93.04,2.84.17,5.61,1.5,8.4,2.3-.24.81-.48,1.62-.72,2.44Z"/>
    <path class="cls-5" d="m427.41,1551.36c-10.41,11.81-23.78,8.16-35.82,9.5-2.33.26-6.01-3.73-7.64-6.56-3.3-5.73-5.63-12-9.04-19.57,18.8-2.09,36.8-.45,54.1-1.02-.58,6.4-1.13,12.4-1.61,17.65Z"/>
    <path class="cls-5" d="m735.69,1641.75c9.12,3.47,16.03,6.11,23.81,9.07-6.65,6.85-8.06,14.43-6.92,23.15,1.18,9.03-7.15,13.13-12.17,18.68-4.99,5.5-10.81,10.26-17.45,16.46-5.76-1.6-12.45-3.45-19.15-5.31.04-.5.08-1,.11-1.49,4.19-.25,8.38-.49,12.94-.76,5.32-5.54,10.81-11.25,15.82-16.46,1.75-14.23-2.75-28.68,3.01-43.33Z"/>
    <path class="cls-6" d="m949.22,1827.6c11.65,6.68,8.88,17.65,8.55,28.19,1.7,1.82,3.57,3.82,5.64,6.05v9.16c-4.04,2.93-8.63,6.27-14.43,10.49.61,4.69,1.38,10.64,2.15,16.6l.16-.19c-1.29,1.31-1.58,2.66-.16,4.07-.65,4.75-4.19,9.51.06,14.24,1.53,3.08.66,6.78,2.48,9.66,5.96,5.43,10.84-.9,16.22-1.2.44,2.94.88,5.87,1.37,9.13h-21.2c-.41,3.84-.75,7.03-1.27,11.89,8.73.44,16.59.84,24.45,1.24.12.88.24,1.76.36,2.64-3.42,1.41-6.84,2.83-10.85,4.49-.5,4.4-4.05,7.13-9.51,7.89-.4-.42-.81-.83-1.23-1.23.41.41.83.81,1.25,1.21-.82,1.82-1.65,3.63-2.47,5.45-1.02-.64-2.04-1.27-3.06-1.91-.24-2.88-.67-5.77-.7-8.65-.33-25.76-.74-51.53-.82-77.29-.04-14.36.39-28.73.88-43.09.1-2.96,1.39-5.88,2.13-8.83Z"/>
    <path class="cls-5" d="m860.09,362.3c4.8-8.56,13.31-10.55,23.41-9.6,5.44.51,10.98.09,16.22.09,6.81,13.47,4.87,27.14-4.61,34.9-4.68-1.22-9.34-2.43-13.79-3.59-6.86-7.05-13.98-14.36-21.23-21.81Z"/>
    <path class="cls-5" d="m1641,1135.21c-2.2-4.03-4.99-8.4-7.02-13.09-1.95-4.5-.21-9.29-.12-13.97.37-17.93-.04-35.88-.14-53.82,0-.28.37-.57,1-1.49-5.62-6.13-11.35-12.4-16.54-18.06v-31.78c2.3-.18,3.62-.28,6.56-.51v30.16c6.51,5.97,12.81,11.76,18.19,16.69,2.5,40.54,1.19,81.22-1.94,85.87Z"/>
    <path class="cls-5" d="m1057.57,1751.37h63.37c3.82-3.54,8.19-7.59,13.38-12.41,3.49,4.21,7.18,8.67,10.61,12.81h34.85c-2.74,3.59-4.48,5.86-6.14,8.04-6.67-1.9-12.75-3.64-19.74-5.64-1.32,1.72-2.83,3.69-5.27,6.86.67.19-.74-.56-2.17-.57-14.06-.13-28.11-.21-42.17-.16-12.75.05-25.5.34-38.25.39-6.08.03-6.96-.98-8.47-9.33Z"/>
    <path class="cls-5" d="m566.38,1189.14c1.31,5.81,2.31,10.25,3.52,15.65h-10.85c-29.13,0-58.26-.21-87.39.12-9.13.11-17.6-.47-25.43-8.62,3.48-.31,6.17-.77,8.86-.77,31.16-.04,62.32-.11,93.48.06,6.49.04,12.5-.71,17.81-6.44Z"/>
    <path class="cls-5" d="m1343.23,1130.43c-4.3,2.15-9.01,3.78-12.74,6.65-1.99,1.53-2.29,5.2-2.08,8.39-12.27,12.05-24.54,24.09-37.21,36.53h-23.6c3.3-5.49,6.11-10.17,8.98-14.96,16.84,3.94,24.1-7.97,33.14-16.57,4.24-4.03,7.71-9,12.37-12.41,7.2-5.27,8.92-12.1,8.41-20.22-.19-3.07-.03-6.16-.03-9.17,4.47.61,8.05,1.11,12.57,1.73v20.21l.18-.19Z"/>
    <path class="cls-5" d="m617.76,267.54c-3.62-6.04-6.55-10.93-9.37-15.64h-11.43c-2.62,3.77-5.62,8.09-8.37,12.04,1.89,2.09,3.05,3.38,4.58,5.07-4.47,1.19-7.99,2.12-10.32,2.74-4.93-6.71-9.01-13.55-14.34-19.25-9.87-10.57-20.44-20.51-30.81-30.62-1.58-1.54-3.64-2.61-5.59-3.98,5.27-4.29,8.8-2.04,12.35,1.86,8.95,9.8,18.08,19.44,25.79,27.71h51.11c7.54,5.07,10.32,11.33,8.06,20.06h-11.68Z"/>
    <path class="cls-5" d="m1206.03,267.5c-.23-1.42-.72-2.48-.49-3.36,3.38-12.96-5.87-20.13-13.35-27.88-1.65-1.71-5.21-2.14-7.92-2.21-9.54-.26-19.1-.1-28.71-.71,17.99-9.71,37.51-9.11,57.23-8.34,2.42,2.67,4.82,5.33,7.22,7.99,0,11.28,0,22.56,0,34.51h-13.99Z"/>
    <path class="cls-5" d="m317.19,1063.39c8.93,12.36,10.94,24.77,2.99,37.83v44.27c-4.06,4.11-7.74,7.83-13.24,13.4-1.6-18.56-3-34.81-4.42-51.21,4.84-4.56,9.57-9.01,14.66-13.81v-30.49Z"/>
    <path class="cls-5" d="m1417.4,764.22c-5.01-1.18-9.21-2.17-13.51-3.18v-9.85c2.63-2.25,5.76-4.93,9.71-8.3,7.99-2.05,13.16,4.16,17.81,9.84,9.36,11.42,18,23.42,27.16,35.46-11.31,3.3-12.08,2.84-19.87-4.75-6.85-6.67-14.2-12.85-21.3-19.22Z"/>
    <path class="cls-5" d="m989.13,231.21c8.53,14.98,21.87,17.92,37.39,16.33,6.51-.66,13.14-.11,19.64-.11,2.67,1.75,5.25,3.44,8.61,5.63-1.51,2.42-3.37,5.41-5.1,8.18-23.35-.9-46.13,1.09-71.03-1.32,4.81-2.56,7.41-3.94,10.48-5.58,1.17-2.27,2.54-4.93,3.85-7.46-2.06-6.33-4.77-11.49-12.21-13.57,2.41-.61,4.81-1.22,8.37-2.11Z"/>
    <path class="cls-5" d="m1026.22,1495.61v24.75h-77.9v-11.49c.56-.21,1.12-.42,1.68-.64,1.89,2.38,3.79,4.77,6.06,7.63h13.67c2.26-3.67,5.17-8.39,7.83-12.73,2.01,3.79,4.45,8.41,6.59,12.44,14.86,1.37,14.52,1.25,19.28-11.29,1.48-3.89,5.35-6.9,8.4-10.64,4.86.66,9.47,1.29,14.4,1.96Z"/>
    <path class="cls-5" d="m1077.74,1692.52c-2.02-4.82-4.17-9.61-6.01-14.52-.6-1.61-.53-3.5-.54-5.27-.11-19.07-.3-38.14-.15-57.2.04-4.61-1.3-8.22-4.83-10.94-7.32-5.62-9.9-12.41-6.9-21.45,1.02-3.07.16-6.76,1.83-10.33.96,6.84.47,14.35,3.28,20.35,2.98,6.38,9.09,11.32,15.92,19.34,2.1,28.2.84,72.86-2.6,80.01Z"/>
    <path class="cls-5" d="m332.25,1295.57c-1.75,4.14,1.59,6.03,3.97,8.01,1.84,1.54,4.32,2.34,6.89,3.66-4.27,3.82-7.71,6.9-10.92,9.78v11.07c1.81,1.29,4.33,3.09,7.78,5.55h7.62c2.81-1.83,6.01-3.9,11.11-7.21-1.4,11.11,6.36,15.2,12.54,21.69h-46.81c-1.35-7.67-1.39-15.63.03-23.65,1.82-10.23,3.66-20.45,5.49-30.67,1.94-.89,2.59-.16,2.3,1.78Z"/>
    <path class="cls-5" d="m517.05,1047.78c0,31.39.02,58.79-.09,86.18,0,.7-1.39,1.4-2.9,2.83-.48-3.36-.87-6.09-1.16-8.15-2.74-4.87-5.18-9.22-7.62-13.56,5.89-5.1,1.78-11.64,2.18-17.39.91-12.97.64-26.02.66-39.04.02-7.65-3.38-13.5-10.45-17.42.52-2.87,1.08-5.95,1.5-8.28,6.37,5.28,12.96,10.74,17.88,14.83Z"/>
    <path class="cls-5" d="m575.86,1280.46c-12.17-12.16-24.85-24.84-36.96-36.94-6.16-1.72-11.59-3.24-17.02-4.76,0-.74-.01-1.47-.02-2.21,1.42-.57,2.79-1.4,4.27-1.66,1.97-.35,4.02-.26,6.03-.36,6.99-.37,12.73.47,17.98,6.76,7.62,9.13,17.06,16.77,26.16,25.46h16.95c2.13,4.44,4.09,8.51,6.59,13.72h-23.98Z"/>
    <path class="cls-5" d="m355.49,816.91c3.37-5.58,5.91-9.77,8.67-14.33h27.86c4.1-4.8,8.54-10.01,12.57-14.73,7.23.68,13.28-1.21,18.84,3.09-3.62-.27-7.24-.55-10.45-.79-8.64,8.26-10.01,12.93-6.07,19.57,3.09,5.22,6.47,5.96,16.97,3.09-1.14,1.91-1.78,3.96-2.45,3.97-21.36.17-42.72.14-65.94.14Z"/>
    <path class="cls-5" d="m1606.3,888.23c-.34-.71-1.47-3.09-3.01-6.31,1.41.07,2.13.16,2.85.14,14.88-.28,29.78-.36,44.65-.97,5.39-.22,8.57,3.4,11.48,6.16,6.71,6.39,9.61,15.14,11.66,24.07-4.93-5.21-9.86-10.42-13.52-14.3-18.98-2.4-36.62,3.21-54.1-8.79Z"/>
    <path class="cls-5" d="m1184.2,1715.89c-5.37.32-8.77.53-12.25.73-1.97-1.4-3.87-2.8-5.83-4.12-7.02-4.76-11.28-10.66-10.86-19.75.54-11.61.13-23.26,1.67-35.44,8.93,19.18,17.86,38.37,27.27,58.58Z"/>
    <path class="cls-5" d="m1180.48,265.74c-3.49-5.25-6.32-9.51-9.15-13.76h-11.36c-2.61,3.75-5.8,8.33-9.52,13.67-1.37.12-3.71.32-6.58.56-6.56-7.79-15.83-13.46-20.16-23.13l1.77-2.18c3.63,1.98,7.27,3.97,11.94,6.52h47.27c5.9,4.9,10.45,9.93,7.59,18.31h-11.79Z"/>
    <path class="cls-5" d="m1301.19,1026.73c6.59-1.9,11.38-3.28,15.52-4.47,1.15-4.4,1.97-7.53,2.9-11.1,9.85,3.83,10.13,12.58,13.05,20.7-6.7,12.8-17.52,18.33-33.8,14.35.75-6.3,1.57-13.18,2.32-19.47Z"/>
    <path class="cls-5" d="m670.38,265.76v-34.2h7.24c3.12,5.69,5.96,10.86,9.36,17.06,7.5-1.99,14.11-3.74,21.52-5.7,2.09,2.61,4.22,5.26,6.96,8.68.33,6.05-1.32,11.7-8.63,13.57-2.86-4.57-5.65-9.03-8.28-13.24h-12.01c-2.4,3.69-5.37,8.25-8.99,13.82h-7.18Z"/>
    <path class="cls-5" d="m1145.4,1801.06c-1.02,1.3-2.05,2.61-3.48,4.44-7.66-7.65-15.01-14.81-22.14-22.18-4.76-4.93-10.1-7.45-17.25-7.19-12,.44-24.03.12-36.07-1.4,1.63-.22,3.27-.63,4.9-.63,28.7-.04,57.4-.07,86.09.05,2.08,0,4.16,1.21,6.24,1.86-1.44,3.26-4.14,4.25-7.52,4.4-8.87.41-11.2,5.53-9.36,13.31.65,2.74,1.58,5.36-1.42,7.33Z"/>
    <path class="cls-5" d="m1642.64,854.02c3.43,4.72,6.34,8.72,10.07,13.85h-52.28c-.91-2.54-2.11-5.89-3.82-10.64,15.53-6.37,31.22-1.55,46.03-3.22Z"/>
    <path class="cls-5" d="m202.04,1144.5c-11.44,11.67-21.77,22.22-32.1,32.77-.99-3.1-1.99-6.24-3.12-9.78,9.96-10.06,19.42-20.5,29.89-29.83,5.91-5.27,8.14-11.04,8.02-18.37-.06-3.44-.01-6.87-.01-10.62,3.6.65,6.71,1.22,10.71,1.94-1.77,7.41-3.46,14.49-4.98,20.86-4.38,4.37-10.76,6.77-8.41,13.05Z"/>
    <path class="cls-5" d="m355.42,258.58c10.53-6.99,21.49-12.68,35.03-11.03,2.62-2.38,5.04-5.13,7.99-7.08,2.67-1.77,5.92-2.67,9.39-4.16-1.12,5.15-3.18,9.29-2.5,12.93.7,3.7,4.09,6.89,6.7,10.92-.94.08-2.49.3-4.03.33-15.75.3-31.5.61-47.26.81-1.2.02-2.4-.72-3.6-1.11-.59.05-1.18.1-1.77.15.01-.59.02-1.17.04-1.76Z"/>
    <path class="cls-5" d="m1048.43,1610.69c3.65.9,6.27,1.54,8.91,2.19v65.3c-1.49,1.67-3.29,3.7-3.95,4.43-1.04,4.55-1.75,7.65-2.46,10.74-.83-.09-1.67-.17-2.5-.26v-82.39Z"/>
    <path class="cls-5" d="m1286.62,1275.19c-4.76,1.62-9.51,3.24-14.27,4.86.09.35.17.69.26,1.04h-39.61c1.87-5.18,3.55-9.8,5.16-14.26h43.9c1.74,1.87,4.05,4.34,6.35,6.82-.04,1.16-.64,1.67-1.8,1.53Z"/>
    <path class="cls-5" d="m969.89,1924.67c-1.05,1.92-2.09,3.83-3.25,5.95h-14.79c-4.94-4.93-2.15-9.69-.66-14.41,2.76-1.65,5.88-2.92,8.18-5.05,3.23-3,5.84-6.64,7.82-8.96h19.3c7.72,5.88,13.44,10.24,20.37,15.52-9.05,3.96-12.86,12.9-22.35,13.6-3.43-.29-3.7-1.91-1.88-4.4,6.46.91,6.64-5.58,10.51-7.91-1.28-3.99-2.39-7.45-3.79-11.79-4.17-1.23-8.62-2.53-12.66-3.72-5.75,4.31-9.41,8.48-8.52,15.1.69,1.34,1.39,2.68,1.64,4.19.2.62.22,1.24.07,1.87Z"/>
    <path class="cls-5" d="m655.63,1736.92c.25-2.61.45-4.67.72-7.46h13.88c6.42,6.7,13.79,14.39,21.07,21.99h17.47c-10.47,12.01-21.48,12.98-31.49,2.3-3.82-4.07-10.61-6.18-10.53-13.54,0-.74-3.12-1.73-4.9-2.23-2.09-.58-4.3-.76-6.22-1.07Z"/>
    <path class="cls-5" d="m722.38,1787.84h-38.81c-2.67-3.96-5.98-8.87-9.29-13.78.42-.65.85-1.3,1.27-1.95,13.01,1.98,26.02,3.95,39.34,5.98,2.5-3.22,4.95-6.38,9.01-11.6-.61,8.63-1.06,14.98-1.52,21.35Z"/>
    <path class="cls-5" d="m547.45,1218.79c8.56-3.82,18.09-.9,26.64-1.53,4.65,12.41,9.03,24.09,13.41,35.77-.73.46-1.46.92-2.19,1.38-12.49-11.75-24.97-23.5-37.85-35.62Z"/>
    <path class="cls-5" d="m409.17,745.55c-1.67,5.46-3.34,10.91-4.84,15.8,3.59,3.71,6.16,6.37,10.12,10.46-14.68-.26-20.22,11.24-29.48,18.1h-10.31c10.55-15.6,20.77-31.11,34.51-44.37Z"/>
    <path class="cls-5" d="m1199.97,1338.99h12.81c2.47,2.74,4.87,5.41,7.17,7.96v16.06h-15.1c-3.96-4.43-11.58-7.12-11.77-16.43,1.99-2.2,4.47-4.92,6.89-7.59Z"/>
    <path class="cls-5" d="m1132.5,1820.36c-1.34,1.42-3.14,3.32-5.26,5.56-9.37-9.7-18.45-19.09-27.53-28.49-.41.62-.82,1.24-1.23,1.86-4.31-1.99-8.44-4.79-12.97-5.74-4.2-.88-8.82.21-13.4.44.27-1.33.4-2.55.53-2.55,11.02-.09,22.05-.08,31.55-.08,9.49,9.72,18.49,18.94,28.3,29Z"/>
    <path class="cls-5" d="m875.49,302.47c1.98-4.15,3.41-7.16,5.43-11.4-3.06-4.14-6.37-8.62-9.61-12.99,4.02-2.4,10.41-2.78,22.44-.38,1.01,8.63,2.05,17.53,3.17,27.08-7.24.32-14.27,2.66-21.44-2.32Z"/>
    <path class="cls-5" d="m308.72,946.68c.47,3.89.94,7.77,1.43,11.83,6.33,1.58,4.74,7.29,4.83,11.8.26,13.34.09,26.69.09,39.87-3.89,2.84-7.41,5.42-11.64,8.51v-16.27c1.73-1.28,4.5-3.34,6.5-4.82v-11.29c-1.3-1.38-3.31-3.52-6.52-6.93,1.76-10.39,3.64-21.46,5.52-32.53l-.21-.18Z"/>
    <path class="cls-5" d="m943,261.02v-8.63c1.65-1.47,3.43-4.41,5.2-4.4,8.54,0,12.52-6.62,16.58-11.73,3.57-4.5,6.94-4.23,12.98-4.18-3.7,4.05-6.39,6.99-9.22,10.08-.87,9.87-.2,11.49,8.93,18.09-12.6,1.47-23.5.76-34.48.78Z"/>
    <path class="cls-6" d="m871.72,1574.02v-15.17c-4.97.99-9.49,1.88-14.12,2.8-2.47-2.04-4.93-4.06-7.69-6.34v-9.93c3.79-3.29,6.5-9.27,13.62-8.52-.05,6.42,7.16,2.65,9.98,8.19.35,7.1.92,16.12,1.1,25.14.03,1.26-1.88,2.56-2.89,3.84Z"/>
    <path class="cls-5" d="m1085.31,179.39c-9.23,1.47-17.42-.63-24.92-6.78,5.35-9.81,14.6-7.56,23.31-7.51,6.33,6.36,12.63,12.69,19.62,19.72-2.35,2-4.67,3.96-5.89,5-5.27-2.91-9.35-5.16-13.42-7.42l1.29-3.01Z"/>
    <path class="cls-5" d="m1566.17,509.22c11,1.44,24.23-5.77,31.16,8.11v19.42c-13.8-6.16-21.74-17.58-31.16-27.53Z"/>
    <path class="cls-5" d="m1259.31,1669.14c-1.77,4.51-3.11,7.93-4.7,11.99-2.57.2-5.59.45-7.26.58-6.39,2.2-6.94,13.42-14.8,8.02v-28.05c9.51,2.65,17.94,5,26.76,7.46Z"/>
    <path class="cls-5" d="m429.16,1349.76c9.87,7.54,19.74,15.07,31.47,24.02-15.37,2.6-28.9.97-43.34.95,5.25-4.9,9.35-8.72,12.24-11.42-.88-5.33-1.41-8.57-1.94-11.8-.62-1.58-.09-2.17,1.57-1.76Z"/>
    <path class="cls-5" d="m1126.83,119.92c6.51-2.17,10.59-3.53,15.44-5.15.45,3.74.8,6.67,1.16,9.72,7.6,7.99,10.47,8.28,19.31,3.54,3.19-1.72,7.23-1.89,11.19-1.76-5.24,10.49-12.84,16.08-26.62,13.3-5.51-5.29-12.38-11.87-20.48-19.65Z"/>
    <path class="cls-5" d="m382.19,1322.17c5.01-.77,10.01-1.55,15.85-2.45,2.46,2.75,5.81,6.49,8.83,9.87-6.92,5.64-14.93,12.16-22.91,18.66-4-.52-7.93-1.03-13.18-1.71,3.84-1.79,6.53-3.05,10.03-4.68,1-1.96,2.48-4.87,4.14-8.11-1.36-2.98-2.97-6.51-4.57-10.04.07-.52.15-1.04.22-1.56.53.01,1.06.03,1.59.04Z"/>
    <path class="cls-5" d="m1034.16,301.59v10.27c-19.24,14.32-32.22,35.53-55.27,44.3,17.86-17.64,35.72-35.27,55.27-54.57Z"/>
    <path class="cls-5" d="m414.86,1502.73c2.42,6.83,4.44,15.12,16.88,14.68-7.46,3.35-41.28,4.74-58.12,3.09-2.06-.2-4.02-1.48-5.72-3.63,3.04-.34,6.07-.67,9.99-1.11,1.95-2.91,4.16-6.19,6.94-10.32,2.65,3.24,5.34,6.54,8.52,10.43h13.43c2.27-3.68,5.18-8.41,8.08-13.13Z"/>
    <path class="cls-5" d="m1022.3,1460.84c.91,6.29,1.83,12.58,2.89,19.91h-17.33c-5.65,4.89-10.16,9.06-15.01,12.79-1.07.82-3.33.12-7.52.12,12.73-12.43,24.08-23.52,35.43-34.61,1.15.05,1.7.62,1.55,1.78Z"/>
    <path class="cls-5" d="m380.38,1323.69c-2.05-1.07-4-2.4-6.16-3.16-3.68-1.29-7.5-2.22-11.03-4.42h-8.97c-3.43-2.69-6.57-5.15-10.66-8.36,3.7-2.11,7.02-4.01,10.8-6.16,3.66,1.71,7.58,3.54,11.37,5.32,3.57-1.46,7.14-2.93,9.65-3.96,2.42,6.83,4.61,13.02,6.8,19.22-.6.51-1.21,1.01-1.81,1.52Z"/>
    <path class="cls-5" d="m1479.37,1315.69c-3.03-2.54-6.06-5.09-9.74-8.18,3.87-2.12,7.29-3.99,10.87-5.95,3.97,1.94,7.9,3.85,11.63,5.66,3.65-1.66,7.26-3.3,11.63-5.29-.22,4.07-.4,7.37-.61,11.14.88,2.92,1.98,6.51,2.94,9.7-8.99-2.75-17.22-5.26-25.44-7.77-.43.22-.86.45-1.29.67Z"/>
    <path class="cls-5" d="m1566.57,333.76c-.22,3.03.55,6.27-.72,7.64-6.95,7.46-14.35,14.52-21.71,21.59-5.39,5.18-10.96,10.17-17.62,16.33h-8.69c16.21-15.15,31.6-29.54,48.74-45.56Z"/>
    <path class="cls-5" d="m1085.09,147.65c2.37-1.71,4.75-3.43,7.7-5.56,11.52,5.42,18.36,16.26,28.85,25.05-2.78,2.79-4.83,4.85-6.81,6.84-10.56-9.35-20.15-17.84-29.74-26.33Z"/>
    <path class="cls-6" d="m688.46,664.83c-9.04,4.24-18.06,8.46-27.48,12.87-4.62-5.13-8.49-9.43-12.26-13.61,10.03-5.02,13.67-4.97,39.74.74Z"/>
    <path class="cls-5" d="m1084.05,1817.36c3.64-1.4,8.27-3.19,12.91-4.97l-1.25,2.77c8.72,6.66,17.44,13.32,26.16,19.98-.71.71-1.42,1.41-2.12,2.12-1.4,2.28-2.8,4.55-4.24,6.88-10.57-9-20.84-17.74-31.46-26.78Z"/>
    <path class="cls-6" d="m332.25,1295.57c-.77-.59-1.54-1.19-2.3-1.78,1.57-5.19,3.13-10.39,4.87-16.15h33.81c1.14,1.52,2.73,3.63,4.32,5.75-6.43,1.93-12.41,3.73-19.04,5.72-2.11-1.52-4.56-3.29-7.26-5.25-7.49.24-12.01,4.65-14.39,11.71Z"/>
    <path class="cls-5" d="m486.74,1129.22c.52-12.2.7-24.43,1.66-36.6.93-11.93,2.65-23.8,4.03-35.69.75.05,1.5.1,2.24.16,0,12.85-.1,25.7.04,38.55.06,6.09,1.61,12.36.59,18.23-1.02,5.84-4.41,11.28-6.76,16.9-.63.12-1.26.25-1.89.37.03-.64.06-1.27.1-1.91Z"/>
    <path class="cls-5" d="m1611.57,816.64h-31.75c1.67-5.33,3.05-9.74,4.25-13.54,17.12-1.36,23.59,2.04,27.51,13.54Z"/>
    <path class="cls-5" d="m1132.05,158.33c-9.94-9.66-19.08-18.53-28.33-27.53,2.97-1.52,5.94-3.03,8.73-4.45,8.92,8.98,17.78,17.91,27.14,27.34-3.42,2.1-5.7,3.5-7.54,4.64Z"/>
    <path class="cls-6" d="m1166.43,662.68c-4.28,4.84-8.47,9.58-12.86,14.54-9.53-4.25-18.49-8.24-27.58-12.3,6.6-.46,13.26-5.25,20.4-.21.66-1.17,1.47-2.6,2.68-4.76,5.76.9,11.67,1.83,17.37,2.72Z"/>
    <path class="cls-5" d="m1443.47,1097.74c-3.58,12.78-7.16,25.56-11.06,39.45-2.8-4.52-4.98-8.05-6.8-10.99v-12.95c2.48-6.48,8.71-12.43,16.25-17.25.6,0,1.19-.01,1.79-.02-.06.59-.12,1.17-.18,1.76Z"/>
    <path class="cls-5" d="m1558.99,379.38h-9.58c10.12-9.32,19.66-18.11,29.34-27.01,2.14,3.69,5.06,8.74,8.48,14.65h-17.55c-3.84,4.44-7.63,8.83-10.68,12.37Z"/>
    <path class="cls-5" d="m530.54,1043.14c-5.41-5.71-10.82-11.42-16.97-17.92v-17.33c3.74,1.65,6.55,2.89,9.05,3.99v10.76c7.57,4.27,10.31,10.8,9.61,19.03-.56.49-1.12.98-1.69,1.47Z"/>
    <path class="cls-5" d="m964.53,1493.47h-8.3c.28-.8.31-1.48.66-1.79,13.21-11.65,22.66-28,41.23-32.91-11.45,10.83-22.89,21.65-34.34,32.48.25.74.49,1.48.74,2.22Z"/>
    <path class="cls-5" d="m1280.95,1633.31c-3.1,4.71-6.19,9.42-8.92,13.57-6.26,2.47-12.17,4.79-19.09,7.52-1.75-1.36-4.31-3.34-6.87-5.33-5.77-1.41-12.84,3.78-18.8-3.82,9.6,0,17.87-.56,26.02.16,7.96.71,13.62-2.1,18.45-7.96,1.98-2.4,4.62-4.27,6.97-6.38.75.75,1.5,1.49,2.25,2.24Z"/>
    <path class="cls-6" d="m1145.4,1801.06c-1.04-5.65-2.09-11.29-3.19-17.29,3.8-2.8,7-5.15,10.19-7.5.14.47.28.94.42,1.41,3.62-.56,7.25-1.11,10.87-1.67-4.23,9.68-7.78,19.86-18.29,25.05Z"/>
    <path class="cls-5" d="m723.67,161.16c-4.44,1.45-8.88,2.91-14.59,4.78-4.37-3.42-10.03-7.85-16.68-13.06h26.76c1.7,1.82,4.01,4.28,6.31,6.74-.04,1.15-.64,1.66-1.8,1.53Z"/>
    <path class="cls-5" d="m1618.3,1052.83c.74,1.39,2.11,2.78,2.12,4.17.14,21.41.09,42.82.09,64.24-.94,0-1.88.02-2.82.03-.65-22.76-1.29-45.52-1.94-68.27l2.54-.16Z"/>
    <path class="cls-5" d="m1662.02,1173.03v8.63h-24.78c-1.08-2.06-2.5-4.79-4.51-8.63h29.29Z"/>
    <path class="cls-5" d="m424.95,904.95c-1.86,13.49-14.54,19.45-22.65,28.83-1.31,1.52-4.94,4.41-7.12.5,9.99-9.84,19.88-19.59,29.77-29.33Z"/>
    <path class="cls-5" d="m693.03,1801.41c9.21-.8,18.39-.79,28.83-.02-1.49,3.99-2.35,6.28-3.33,8.91h-18c-2.9-2.16-5.78-4.32-8.66-6.47.38-.81.77-1.61,1.15-2.42Z"/>
    <path class="cls-5" d="m678.18,1411.26c-2.48-4.69-4.96-9.38-8.43-15.93.39-2.83,1.08-7.86,1.77-12.88l-.16-1.76c.59.01,1.19.02,1.78.03,3.94,6.1,7.89,12.19,11.93,18.46-2.55,4.29-4.82,8.1-7.09,11.92l.19.16Z"/>
    <path class="cls-5" d="m1586.28,832.03c12.79,1.06,25.33-2.76,35.21,6.85-9.48,3.08-20.42-3.02-29.99,4.93-1.55-3.5-3.11-7.03-5.22-11.78Z"/>
    <path class="cls-5" d="m321.49,1021.88c-1.32,16.33-15.09,20.88-20.66,33.34v-16.06c6.58-5.51,12.93-10.82,20.66-17.28Z"/>
    <path class="cls-5" d="m967.58,196.76l.59,9.93c.91-.89,1.82-1.79,2.73-2.68,2.63,3.58,5.25,7.17,9.24,12.61h-12.96c-3.67,3.45-7.12,6.69-12.15,11.41,1.57-12.85,8.87-21.32,12.56-31.26Z"/>
    <path class="cls-5" d="m339.51,484.92v11.51c-4.06-.32-7.35-.57-10.8-.85-3.29,3.07-6.74,6.3-11.03,10.31-.16-3.36-.26-5.56-.38-7.97,3.62-3.32,7.14-6.55,11.53-10.57,2.65-.6,6.51-1.48,10.68-2.44Z"/>
    <path class="cls-5" d="m1579.47,643.09c-3.36-1.38-6.72-2.76-11.13-4.56-3.92,4.14-7.58,8.01-11.74,12.41-2.7-3.66-5.82-7.89-9.68-13.12h33.2c.27,1.16.56,2.4.86,3.63.08.58.17,1.16.25,1.74-.59-.03-1.18-.07-1.77-.1Z"/>
    <path class="cls-5" d="m1441.86,1096c.66-10.79,1.33-21.57,2.03-32.98,4.66,6.16,7.64,11.91,3.91,19.73-2.21,4.64-2.94,9.97-4.33,14.99-.54-.58-1.07-1.16-1.61-1.74Z"/>
    <path class="cls-5" d="m499.69,1573.63c-4.86-4.86-8.7-8.7-12.55-12.54.29-.48.58-.95.88-1.43,3.74.95,7.47,1.91,11.67,2.98v10.99Z"/>
    <path class="cls-5" d="m427.59,1351.51c-3.18-.96-6.36-1.92-10.43-3.15,5.11-3.96,8.76-3.16,12,1.39-.52.59-1.05,1.17-1.57,1.76Z"/>
    <path class="cls-6" d="m982.63,1926.93c.63,1.47,1.25,2.93,1.88,4.4-1.63,1-3.26,1.99-4.89,2.99-1.6-1.67-2.92-3.06-4.34-4.54,2.52-.97,4.93-1.91,7.35-2.85Z"/>
    <path class="cls-5" d="m700.79,1705.39h-6.57c-.09-.72-.18-1.44-.27-2.16,2.2-.36,4.39-.72,6.59-1.08.08,1.08.17,2.16.25,3.25Z"/>
    <path class="cls-5" d="m378.04,1303.37v-7.66c3.81,2.22,5.33,4.05,0,7.66Z"/>
    <path class="cls-5" d="m488.54,1130.75c.11,1.77.22,3.54.34,5.32-1,0-2-.02-2.99-.02.29-2.28.57-4.56.86-6.83.6.51,1.2,1.03,1.8,1.54Z"/>
    <path class="cls-5" d="m357.16,260.19c-1.88.66-3.77,1.31-5.65,1.97-.15-.42-.31-.84-.46-1.26,1.46-.77,2.92-1.54,4.38-2.31.58.54,1.16,1.07,1.73,1.61Z"/>
    <path class="cls-6" d="m863.49,1536.89c1.4-1.42,2.79-2.84,4.19-4.26-1.4,1.42-2.79,2.84-4.19,4.26Z"/>
    <path class="cls-5" d="m1095.26,1421.65c-.21,1.2-.42,2.4-.63,3.6-.71-.13-1.41-.26-2.12-.39.32-1.59.64-3.18.96-4.76.6.52,1.19,1.03,1.79,1.55Z"/>
    <path class="cls-5" d="m790.7,1700.03c-.48-1.59-.96-3.17-1.44-4.76.54-.58,1.08-1.15,1.63-1.73,2.48.24,3.15,1.87,2.88,3.97-.23,1.79-1.26,2.82-3.27,2.35l.2.17Z"/>
    <path class="cls-6" d="m969.82,1922.79c-.55-1.4-1.09-2.79-1.64-4.19.55,1.4,1.09,2.79,1.64,4.19Z"/>
    <path class="cls-5" d="m1473.95,258.61c1.44.76,2.89,1.53,4.33,2.29-.16.42-.31.84-.47,1.26-1.88-.66-3.75-1.32-5.63-1.98.59-.53,1.18-1.05,1.76-1.58Z"/>
    <path class="cls-5" d="m671.52,1382.44c-.66-1.87-1.33-3.73-1.99-5.6.42-.15.85-.31,1.27-.46.78,1.44,1.56,2.89,2.34,4.33-.54.57-1.08,1.15-1.62,1.72Z"/>
    <path class="cls-5" d="m1288.42,1273.66c.79.82,1.59,1.64,2.38,2.47-.28.37-.56.74-.84,1.11-1.11-.68-2.22-1.37-3.34-2.05.6-.51,1.2-1.02,1.8-1.53Z"/>
    <path class="cls-5" d="m673.07,1771.99c-.44-.93-.88-1.85-1.32-2.78.46-.26.92-.51,1.37-.77l1.67,2.47-1.72,1.08Z"/>
    <path class="cls-5" d="m514.63,1236.68c.47-.86.94-1.71,1.41-2.57.33.07.66.15.99.22-.19,1.02-.38,2.05-.57,3.07-.61-.24-1.22-.48-1.83-.73Z"/>
    <path class="cls-5" d="m1295.68,1284.48c-.79-.82-1.58-1.65-2.38-2.47.28-.37.56-.74.84-1.11,1.11.68,2.22,1.37,3.33,2.05-.6.51-1.2,1.02-1.8,1.53Z"/>
    <path class="cls-5" d="m984.74,1885.84c-1.14.64-2.28,1.29-3.42,1.93-.62-.72-1.24-1.44-1.86-2.17,1.17-.44,2.34-.89,3.51-1.33.59.52,1.18,1.04,1.77,1.56Z"/>
    <path class="cls-5" d="m1020.75,1459.05c.83-.78,1.66-1.57,2.49-2.35.37.28.75.56,1.12.84-.69,1.1-1.38,2.2-2.07,3.3l-1.55-1.78Z"/>
    <path class="cls-6" d="m955.26,1897.88c.73-.54,1.46-1.09,2.19-1.63-.21.93-.41,1.86-.64,2.9-.63-.52-1.09-.89-1.55-1.27Z"/>
    <path class="cls-5" d="m951.13,1901.97c-3.08-1.48-2.83-2.83.16-4.07-.05,1.36-.1,2.72-.16,4.07Z"/>
    <path class="cls-5" d="m732.74,170.45c-.79-.82-1.58-1.65-2.38-2.47.28-.37.56-.74.84-1.11,1.11.68,2.22,1.37,3.33,2.05l-1.8,1.53Z"/>
    <path class="cls-5" d="m725.47,159.63c.79.82,1.59,1.64,2.38,2.47-.28.37-.56.74-.84,1.11-1.11-.68-2.22-1.37-3.34-2.05.6-.51,1.2-1.02,1.8-1.53Z"/>
    <path class="cls-5" d="m879.74,228.49c-1.19-.06-2.38-.13-3.56-.19.06-.52.11-1.04.17-1.56,1.17.17,2.33.34,3.5.52l-.1,1.24Z"/>
    <path class="cls-5" d="m1580.99,641.46c.67,1.1,1.35,2.2,2.02,3.29-.69.58-1.39,1.17-2.08,1.75-.49-1.13-.97-2.27-1.46-3.4.51-.55,1.01-1.09,1.52-1.64Z"/>
    <path class="cls-5" d="m710.09,1599.34c.83-.79,1.66-1.57,2.49-2.36.38.28.75.56,1.13.83-.69,1.1-1.38,2.2-2.07,3.3-.52-.59-1.03-1.19-1.55-1.78Z"/>
    <path class="cls-5" d="m510.99,1235.51c.39-.5.78-.99,1.53-1.95.26,1.13.44,1.9.62,2.66-.72-.24-1.44-.47-2.15-.71Z"/>
    <path class="cls-5" d="m409.3,1153c.5.39,1,.77,1.97,1.52-1.14.26-1.92.44-2.69.62.24-.71.48-1.42.72-2.13Z"/>
    <path class="cls-5" d="m375.93,1023.5c-.37.53-.74,1.06-1.44,2.06-.28-1.17-.48-1.97-.67-2.77.7.24,1.41.47,2.11.71Z"/>
    <path class="cls-5" d="m408.82,1159.64c-.55-.58-1.1-1.16-2.62-2.77,2.17.48,2.95.66,3.73.83-.37.65-.74,1.29-1.11,1.94Z"/>
    <path class="cls-2" d="m716.36,1077.51c1.39-.92,2.78-1.84,4.17-2.76.44.69.88,1.38,1.32,2.06-1.35.77-2.69,1.54-4.04,2.31l-1.45-1.62Z"/>
    <path class="cls-2" d="m458.22,1144.45c-1.17,2.3-2.4,4.71-4.38,8.6-3.73.8-8.52,1.84-13.41,2.9-3.29-4.1-6.08-7.58-9.13-11.39,10.25-13.55,4.73-28.72,6.02-43.05.5-5.6-3.85-9.11-8.49-9.55-7.41-.69-11.03-4.54-13.62-12.03,2.65-3.44,5.76-7.45,8.32-10.77,14.03-.36,15.84,1.37,17.04,12.69,4.37,5.59,7.56,9.67,12.1,15.47,1.64,13.63-4.3,30.88,5.57,47.12Z"/>
    <path class="cls-2" d="m250.56,419.81h-6.66c-7.31-6.63-13.39-13.53-3.2-22.82,1.87-.59,4.39-1.38,6.88-2.16,3.04,1.46,6.1,2.92,10.44,5-.09,12.86,11.26,19.16,19.36,28.24v19.15c.46-.12.93-.25,1.39-.37,1.7,4.8,3.4,9.59,5.09,14.37-3.18,3.08-5.89,5.72-8.76,8.5-4.03-.72-8.07-1.44-12.07-2.16-1.93-3.67-3.65-6.93-5.66-10.76,2.29-3.22,4.76-6.7,7.13-10.03v-13.32c-4.38-4.29-9.29-9.11-13.93-13.65Z"/>
    <path class="cls-2" d="m429.86,296.09c-2.53,7.16-5.95,12.81-15.38,12.82-5.65-3.44-11.66-7.61-8.71-17.9,2.99-2.2,6.78-4.97,10.16-7.45,7.59.97,11.99,5.03,13.93,12.54Z"/>
    <path class="cls-2" d="m294.35,447.44c-2.54-2.24-4.72-4.16-7.25-6.39v-10.34c2.94-2.15,6.68-4.89,9.98-7.31,12.05,3.82,13.15,4.98,12.42,12.48-.92,9.4-1.59,9.93-15.14,11.57Z"/>
    <path class="cls-2" d="m1373.27,1475.68c17.04,8.07,17.27,14.95,1.34,25.88-2.6-.81-5.39-1.22-7.66-2.52-2.33-1.33-4.15-3.54-5.34-4.6h-9.77c-1.19,1.09-3.43,3.15-5.86,5.37v9.55c2.44,3.34,5,6.87,7.73,10.61-3.35,5.45-3.93,12.73-11.3,13.96-8.45-1.32-14.77-4.65-14.11-15.9.54-.63,2.46-2.86,4.4-5.11v-12.55c-1.82-3.66-3.72-7.51-5.65-11.4,1.33-2.81,2.6-5.5,3.87-8.19,3.52-5.02,12.47-4.82,18.7.52,4.04,0,8.2,0,12.35,0,3.63-1.8,7.26-3.6,11.3-5.61Z"/>
    <path class="cls-2" d="m1435.75,987.14v9.3c-1.57,1.6-3.88,3.95-5.89,5.99h-9.93c-9.46-8.59-9.62-12.77-.72-22.13h11.02c1.5,1.86,3.43,4.24,5.52,6.83Z"/>
    <path class="cls-2" d="m790.5,1699.86c4.17-1.87,3.05-4.05.39-6.33.6-10.3,2.04-20.67,1.28-30.87-.22-3,4.37-7.89-1.67-10.13,6.21-7.4,12.42-14.79,18.86-22.46v-12.91c-1.04-1.51-2.56-3.7-4.12-5.95.64-5.76-1.98-12.12,4.63-16.51,7.25-4.83,12.03.89,17.9,3.07v14.34c-1.52,1.69-3.53,3.93-4.21,4.7-.58,8.38-1.04,15.13-1.5,21.88l-1.7-1.2c-4.09,5.51-8.18,11.01-12.26,16.52-.83-.58-1.66-1.15-2.49-1.73v68.17c-5.56,5.76-10.19,10.54-14.05,14.54,1.79,3.48,3.2,6.22,4.5,8.74-1.84,7.81-6.84,12.04-15.1,12.86-1.96-1.24-4.53-2.86-7.73-4.88-1.02-2.1-2.33-4.78-3.2-6.57,1.99-11.84,10.26-18.6,17.45-25.55,6.67-6.45,6.5-12.48,3.03-19.73Z"/>
    <path class="cls-2" d="m791.47,1521.12c-4.05,5.12-7.48,9.46-10.15,12.83-10.91-.68-15.82-5.71-16.78-15.12,1.46-1.67,3.46-3.96,5.28-6.03v-12.43c-2.05-4.1-3.96-7.93-5.78-11.56,1.51-3,2.88-5.72,4.92-9.76,3.85-.7,8.76-1.59,13.17-2.39,1.71,2.05,2.75,3.3,4.62,5.54,5.47-1,11.66-1.42,17.32-3.35,8.03-2.74,14.45-1.6,17.67,4.49,3.15,5.93,1.29,10.43-6.36,15.61-1.13.76-2.08,1.79-3.63,3.16-4.59-2.4-9.28-4.84-14.73-7.7h-8.67c-1.08,1.24-3.12,3.57-5.06,5.8v9.27c2.18,3.1,4.83,6.86,8.19,11.64Z"/>
    <path class="cls-2" d="m827.37,1560.83v-12.35c-4.39-4.23-9.32-8.97-15.26-14.68h-5.03c-2.59-2.06-5.85-3.51-7.23-5.98-3.13-5.63-1.49-11.09,3.45-16.59,1.62-.53,4.16-1.35,8.38-2.72,3,2.63,9.25,5.45,10.12,9.43,1.65,7.52,6.29,11.95,11.19,16.7,2.46,2.39,5.13,4.57,7.38,6.56v20.31c.4-.12.79-.24,1.19-.36,1.79,4.49,3.57,8.97,5.54,13.91-3.49,2.92-6.6,5.52-10.13,8.48-3.12-.56-7.18-1.28-11.11-1.98-1.96-3.84-3.63-7.13-5.54-10.88,2.29-3.19,4.79-6.68,7.06-9.85Z"/>
    <path class="cls-2" d="m1000.4,1655.48c-5.93-3.08-12.64-6.57-19.28-10.02-.78-2.32-1.53-4.52-2.71-8.02,2.3-3.19,5.2-7.22,8.24-11.45,5.54,1.46,10.49,2.77,14.85,3.93.89,5.07,1.48,8.46,2.22,12.68,3.67,3.35,7.74,7.07,11.81,10.78v35.9c2.01,3.98,3.82,7.59,5.65,11.22-3.45,6.76-7.37,12.94-16.44,11.47-3.53-3.17-6.83-6.13-10.8-9.69,9.23-14.33,5.71-30.04,6.45-46.79Z"/>
    <path class="cls-2" d="m537.85,1562.03c3.15-4.91,4.96-7.74,6.87-10.71,0-19.13-.07-38.38.04-57.63.04-6.43-.96-11.86-7.46-15.43-3-1.65-4.91-5.18-7.44-7.74-.89-.9-2.08-1.79-3.28-2.06-11.49-2.56-23.22-3.58-34.32.66-4.05,1.55-7.66,3.8-12.3,3.76-7.25-3.81-8.92-10.04-6.9-18.84.94-.77,3.09-2.53,5.23-4.29,1.95-2.13,12.05.85,15.69,4.61h36.99c7.78,7.47,15.89,15.21,23.91,23.02,2.65,2.58,2.98,5.57,2.89,9.44-.47,20.32-.22,40.66-.22,61.07,2.7,3.92,5.54,8.05,9.12,13.24-4.1,4.75-7.92,9.17-12.79,14.81-6.1-5.3-11.03-9.58-16.03-13.92Z"/>
    <path class="cls-2" d="m1359.08,271.72c-12.59,12.71-13.82,12.78-25.92,1.83v-8.41c3.07-3.21,5.89-6.14,8.43-8.8,10.46.25,15.82,5.11,17.49,15.38Z"/>
    <path class="cls-2" d="m430.03,1411.17c-2.36,3.39-5.19,7.47-7.73,11.12-13.31.41-17.11-3.26-17.11-17.69.75-.52,2.69-1.95,4.72-3.24,2-1.26,4.09-2.36,6.43-3.69,7.3.69,11.67,5.04,13.69,13.5Z"/>
    <path class="cls-2" d="m797.18,1866.69c2.75-3.94,5.51-7.89,7.88-11.28,16.17-2.33,17.84-6.71,9.37-21.88,1.6-3.2,3.17-6.35,4.59-9.21,2.91-1.49,5.62-2.87,9.42-4.81,3.71,2.67,7.99,5.76,13.11,9.45-1.27,3.86-2.33,7.23-3.5,10.55-.43,1.25-1.6,2.42-1.58,3.61.13,7.92-5.71,12.33-10.23,17.52-3.23,3.71-3.29,3.66-2.45,10.14-3.92,2.87-8.22,6.01-12.53,9.16-4.01-1.86-7.35-3.41-10.28-4.77-1.37-3.06-2.59-5.76-3.8-8.47Z"/>
    <path class="cls-2" d="m683.4,1549.69c-1.81,3.76-3.49,7.24-5.22,10.84-4.65.21-9.2.42-14.51.66-2.03-2.88-4.32-6.15-6.68-9.51,1.15-3.7,2.23-7.16,3.25-10.43,11.69-6.56,16.43-4.72,23.16,8.44Z"/>
    <path class="cls-2" d="m1284.83,1301.69c1.28,1.4,2.31,3.3,3.9,4.12,5.61,2.88,8,7.34,7.15,14.22-8.96,12.31-16.83,11.62-25.61-3.45,1.48-3.04,3.06-6.31,4.57-9.42,3.48-1.93,6.86-3.8,10.23-5.67l-.25.19Z"/>
    <path class="cls-2" d="m1413.14,1555.35v-9.66c7.71-10.6,10.5-7.98,16.92-5.9,5.17,1.68,7,5.8,5.79,11.54-1.58,7.5-2.77,8.57-15.63,10.02-2.44-2.07-4.88-4.14-7.08-6Z"/>
    <path class="cls-2" d="m984.78,308.96c-12.77-.39-16.63-4.45-16.65-18.41.73-.5,2.68-1.92,4.72-3.2,2-1.25,4.09-2.36,6.34-3.64q9.27,2.75,13.95,13.2c-2.5,3.61-5.33,7.69-8.36,12.05Z"/>
    <path class="cls-4" d="m744.52,743.87c-.07,17.99-16.5,34.52-34.49,33.52-19.12-1.07-33.66-15.47-33.55-33.85.12-18.53,15.16-33.05,34.94-33.55,17.46-.44,33.17,16.03,33.1,33.88Z"/>
    <path class="cls-4" d="m1138.59,743.72c0,18.04-16.22,34.53-34.34,33.67-18.95-.91-33.7-15.14-33.7-33.69,0-18.4,14.89-33.09,34.79-33.71,17.39-.54,33.26,15.94,33.26,33.73Z"/>
    <path class="cls-2" d="m953.25,1961.92c-1.27-.6-2.54-1.19-3.81-1.79.46-.56.93-1.12,1.39-1.68.8,1.16,1.6,2.33,2.4,3.49,0,0,.02-.02.02-.02Z"/>
  </g>
  <rect class="cls-3" x="180.35" y="992" width="870.94" height="1050.54"/>
</svg>